<svg id="icon-creditcard" xmlns="http://www.w3.org/2000/svg" xmlns:xlink="http://www.w3.org/1999/xlink" width="30" height="30" viewBox="0 0 30 30">
  <defs>
    <clipPath id="clip-path">
      <path id="Combined_Shape" data-name="Combined Shape" d="M3.125,18.75A3.128,3.128,0,0,1,0,15.625V3.125A3.128,3.128,0,0,1,3.125,0H21.875A3.128,3.128,0,0,1,25,3.125v12.5a3.128,3.128,0,0,1-3.125,3.125ZM2.083,15.625a1.042,1.042,0,0,0,1.042,1.042H21.875a1.042,1.042,0,0,0,1.042-1.042V8.333H2.083ZM22.916,6.251V3.125a1.042,1.042,0,0,0-1.042-1.042H3.125A1.042,1.042,0,0,0,2.083,3.125V6.251Z" fill="#091625"/>
    </clipPath>
  </defs>
  <rect id="Rectangle_154" data-name="Rectangle 154" width="30" height="30" fill="none"/>
  <g id="Groupe_2" data-name="Groupe 2" transform="translate(2.5 6.25)">
    <path id="Combined_Shape-2" data-name="Combined Shape" d="M3.125,18.75A3.128,3.128,0,0,1,0,15.625V3.125A3.128,3.128,0,0,1,3.125,0H21.875A3.128,3.128,0,0,1,25,3.125v12.5a3.128,3.128,0,0,1-3.125,3.125ZM2.083,15.625a1.042,1.042,0,0,0,1.042,1.042H21.875a1.042,1.042,0,0,0,1.042-1.042V8.333H2.083ZM22.916,6.251V3.125a1.042,1.042,0,0,0-1.042-1.042H3.125A1.042,1.042,0,0,0,2.083,3.125V6.251Z" fill="#091625"/>
  </g>
</svg>
