<svg id="icon-location" xmlns="http://www.w3.org/2000/svg" xmlns:xlink="http://www.w3.org/1999/xlink" width="30" height="30" viewBox="0 0 30 30">
  <defs>
    <clipPath id="clip-path">
      <path id="Combined_Shape" data-name="Combined Shape" d="M8.75,21a.882.882,0,0,1-.486-.147c-.134-.091-.249-.172-.364-.256-.286-.205-.6-.442-.925-.7a27.167,27.167,0,0,1-2.8-2.557C1.405,14.41,0,11.522,0,8.75a8.75,8.75,0,0,1,17.5,0c0,2.771-1.406,5.659-4.178,8.586a27.151,27.151,0,0,1-2.8,2.557c-.313.249-.624.486-.925.7-.183.132-.312.221-.366.257A.874.874,0,0,1,8.75,21Zm0-19.25a7.008,7.008,0,0,0-7,7c0,2.308,1.244,4.792,3.7,7.382a25.441,25.441,0,0,0,2.618,2.392c.238.19.468.367.685.527.22-.162.451-.339.685-.527a25.5,25.5,0,0,0,2.617-2.392c2.454-2.59,3.7-5.074,3.7-7.382A7.008,7.008,0,0,0,8.75,1.75Zm0,10.5a3.5,3.5,0,1,1,3.5-3.5A3.5,3.5,0,0,1,8.75,12.25ZM8.75,7A1.75,1.75,0,1,0,10.5,8.75,1.752,1.752,0,0,0,8.75,7Z" transform="translate(0 0)" fill="#091625"/>
    </clipPath>
  </defs>
  <rect id="Rectangle_173" data-name="Rectangle 173" width="30" height="30" fill="none"/>
  <g id="Groupe_6" data-name="Groupe 6" transform="translate(6.25 5)">
    <path id="Combined_Shape-2" data-name="Combined Shape" d="M8.75,21a.882.882,0,0,1-.486-.147c-.134-.091-.249-.172-.364-.256-.286-.205-.6-.442-.925-.7a27.167,27.167,0,0,1-2.8-2.557C1.405,14.41,0,11.522,0,8.75a8.75,8.75,0,0,1,17.5,0c0,2.771-1.406,5.659-4.178,8.586a27.151,27.151,0,0,1-2.8,2.557c-.313.249-.624.486-.925.7-.183.132-.312.221-.366.257A.874.874,0,0,1,8.75,21Zm0-19.25a7.008,7.008,0,0,0-7,7c0,2.308,1.244,4.792,3.7,7.382a25.441,25.441,0,0,0,2.618,2.392c.238.19.468.367.685.527.22-.162.451-.339.685-.527a25.5,25.5,0,0,0,2.617-2.392c2.454-2.59,3.7-5.074,3.7-7.382A7.008,7.008,0,0,0,8.75,1.75Zm0,10.5a3.5,3.5,0,1,1,3.5-3.5A3.5,3.5,0,0,1,8.75,12.25ZM8.75,7A1.75,1.75,0,1,0,10.5,8.75,1.752,1.752,0,0,0,8.75,7Z" transform="translate(0 0)" fill="#091625"/>
  </g>
</svg>
