<svg id="icon-download" xmlns="http://www.w3.org/2000/svg" width="30" height="30" viewBox="0 0 30 30">
  <path id="Fill_1" data-name="Fill 1" d="M13.874,18.214H1.127a1.072,1.072,0,1,1,0-2.142H13.874a1.072,1.072,0,1,1,0,2.142ZM7.5,15h0L1.475,10.275a1.04,1.04,0,0,1-.4-.708A1.028,1.028,0,0,1,1.306,8.8a1.088,1.088,0,0,1,1.506-.164l3.616,2.836V1.051a1.072,1.072,0,0,1,2.143,0V11.47l3.617-2.837a1.087,1.087,0,0,1,1.506.164,1.03,1.03,0,0,1,.228.768,1.044,1.044,0,0,1-.4.709L7.5,15Z" transform="translate(7.5 6.25)" fill="#091625"/>
  <rect id="Rectangle_237" data-name="Rectangle 237" width="30" height="30" fill="none"/>
</svg>
