<svg id="icon-timer" xmlns="http://www.w3.org/2000/svg" width="30" height="30" viewBox="0 0 30 30">
  <rect id="Rectangle_265" data-name="Rectangle 265" width="30" height="30" fill="none"/>
  <path id="Fill_1" data-name="Fill 1" d="M15.321,20H.928a.854.854,0,1,1,0-1.7H2.6V14.347a3.335,3.335,0,0,1,1.551-2.766l2.579-1.7L4.178,8.272a3.333,3.333,0,0,1-1.624-2.81V1.7H.928A.893.893,0,0,1,0,.852.893.893,0,0,1,.928,0H15.321a.893.893,0,0,1,.928.852.893.893,0,0,1-.928.851H13.7V5.5a3.333,3.333,0,0,1-1.551,2.757l-2.576,1.7,2.558,1.609a3.333,3.333,0,0,1,1.625,2.81V18.3h1.569a.854.854,0,1,1,0,1.7ZM8.083,11.089h0L5.241,12.958a1.666,1.666,0,0,0-.775,1.383V18.3h7.428V14.376a1.663,1.663,0,0,0-.81-1.4l-3-1.89ZM4.411,1.7v3.76a1.664,1.664,0,0,0,.808,1.4l3,1.883,2.842-1.869A1.666,1.666,0,0,0,11.84,5.5V1.7Z" transform="translate(7.5 5)" fill="#091625"/>
</svg>
