<svg id="icon-text" xmlns="http://www.w3.org/2000/svg" width="30" height="30" viewBox="0 0 30 30">
  <rect id="Rectangle_121" data-name="Rectangle 121" width="30" height="30" fill="none"/>
  <g id="Text" transform="translate(3.75 6.25)">
    <path id="Tracé_40" data-name="Tracé 40" d="M4.61,3.475h4.9L4.36-13.9H-1.19L-6.34,3.475h4.8l.775-3.55h4.6ZM-.04-3.375,1.535-10.6,3.11-3.375Z" transform="translate(6.34 13.964)" fill="#091625"/>
    <path id="Union_4" data-name="Union 4" d="M1,17.438a1,1,0,1,1,0-2H2.123V2H1A1,1,0,0,1,1,0H5.248a1,1,0,0,1,0,2H4.123V15.439H5.248a1,1,0,1,1,0,2Z" transform="translate(16.051)" fill="#091625"/>
  </g>
</svg>
