<svg id="icon-star" xmlns="http://www.w3.org/2000/svg" xmlns:xlink="http://www.w3.org/1999/xlink" width="30" height="30" viewBox="0 0 30 30">
  <defs>
    <clipPath id="clip-path">
      <path id="Shape" d="M15.619,19.112a.9.9,0,0,1-.423-.106L10,16.273l-5.2,2.733a.9.9,0,0,1-.423.106.914.914,0,0,1-.7-.328.89.89,0,0,1-.2-.736l.992-5.784L.275,8.17a.91.91,0,0,1,.5-1.551L6.588,5.77,9.185.506a.91.91,0,0,1,1.631,0l2.6,5.264,5.81.848a.909.909,0,0,1,.5,1.551l-4.2,4.094.992,5.784a.89.89,0,0,1-.2.736A.915.915,0,0,1,15.619,19.112ZM10,14.337a.91.91,0,0,1,.423.1l3.988,2.1L13.651,12.1a.906.906,0,0,1,.262-.8l3.226-3.143L12.679,7.5A.9.9,0,0,1,12,7L10,2.963,8.008,7a.909.909,0,0,1-.684.5l-4.461.653L6.089,11.3a.906.906,0,0,1,.262.8L5.59,16.539l3.988-2.1A.91.91,0,0,1,10,14.337Z" transform="translate(0 0)" fill="#091625"/>
    </clipPath>
  </defs>
  <rect id="Rectangle_147" data-name="Rectangle 147" width="30" height="30" fill="none"/>
  <g id="Groupe_6" data-name="Groupe 6" transform="translate(5 5)">
    <path id="Shape-2" data-name="Shape" d="M15.619,19.112a.9.9,0,0,1-.423-.106L10,16.273l-5.2,2.733a.9.9,0,0,1-.423.106.914.914,0,0,1-.7-.328.89.89,0,0,1-.2-.736l.992-5.784L.275,8.17a.91.91,0,0,1,.5-1.551L6.588,5.77,9.185.506a.91.91,0,0,1,1.631,0l2.6,5.264,5.81.848a.909.909,0,0,1,.5,1.551l-4.2,4.094.992,5.784a.89.89,0,0,1-.2.736A.915.915,0,0,1,15.619,19.112ZM10,14.337a.91.91,0,0,1,.423.1l3.988,2.1L13.651,12.1a.906.906,0,0,1,.262-.8l3.226-3.143L12.679,7.5A.9.9,0,0,1,12,7L10,2.963,8.008,7a.909.909,0,0,1-.684.5l-4.461.653L6.089,11.3a.906.906,0,0,1,.262.8L5.59,16.539l3.988-2.1A.91.91,0,0,1,10,14.337Z" transform="translate(0 0)" fill="#091625"/>
  </g>
</svg>
