<svg id="Icon-car" xmlns="http://www.w3.org/2000/svg" width="30" height="30" viewBox="0 0 30 30">
  <rect id="Rectangle_553" data-name="Rectangle 553" width="30" height="30" fill="none" opacity="0.44"/>
  <g id="Car" transform="translate(3.75 6.189)">
    <path id="Rectangle_554" data-name="Rectangle 554" d="M2.5,2a.5.5,0,0,0-.5.5V6.75H20.5V2.5A.5.5,0,0,0,20,2H2.5m0-2H20a2.5,2.5,0,0,1,2.5,2.5v5a1.25,1.25,0,0,1-1.25,1.25h-20A1.25,1.25,0,0,1,0,7.5v-5A2.5,2.5,0,0,1,2.5,0Z" transform="translate(0 6.311)" fill="#091625"/>
    <path id="Rectangle_555" data-name="Rectangle 555" d="M2,2V3.25a.5.5,0,1,0,1,0V2H2M0,0H5V3.25a2.5,2.5,0,1,1-5,0Z" transform="translate(1.25 13.062)" fill="#091625"/>
    <path id="Rectangle_556" data-name="Rectangle 556" d="M2,2V3.25a.5.5,0,1,0,1,0V2H2M0,0H5V3.25a2.5,2.5,0,1,1-5,0Z" transform="translate(16.25 13.062)" fill="#091625"/>
    <path id="Union_5" data-name="Union 5" d="M15477.519,9286.5h-16.32a1,1,0,0,1-.93-1.367l2.48-6.295a1,1,0,0,1,.93-.633h11.359a1,1,0,0,1,.93.633l2.48,6.295a1,1,0,0,1-.93,1.367Zm-14.852-2h13.383l-1.693-4.295h-10Z" transform="translate(-15458.134 -9278.201)" fill="#091625"/>
    <path id="Tracé_74" data-name="Tracé 74" d="M1.25,0A1.25,1.25,0,1,1,0,1.25,1.25,1.25,0,0,1,1.25,0Z" transform="translate(2.5 8.811)" fill="#091625"/>
    <path id="Tracé_75" data-name="Tracé 75" d="M1.25,0A1.25,1.25,0,1,1,0,1.25,1.25,1.25,0,0,1,1.25,0Z" transform="translate(17.5 8.811)" fill="#091625"/>
    <path id="Tracé_74-2" data-name="Tracé 74" d="M-10825.165-8478.268h-1.635a1,1,0,0,1-1-1,1,1,0,0,1,1-1h1.635a1,1,0,0,1,1,1A1,1,0,0,1-10825.165-8478.268Z" transform="translate(10845.55 8483.744)" fill="#091625"/>
    <path id="Tracé_75-2" data-name="Tracé 75" d="M-10825.165-8478.268h-1.635a1,1,0,0,1-1-1,1,1,0,0,1,1-1h1.635a1,1,0,0,1,1,1A1,1,0,0,1-10825.165-8478.268Z" transform="translate(10828.865 8483.744)" fill="#091625"/>
  </g>
</svg>
