<svg id="icon-pencil" xmlns="http://www.w3.org/2000/svg" width="30" height="30" viewBox="0 0 30 30">
  <rect id="Rectangle_117" data-name="Rectangle 117" width="30" height="30" fill="none"/>
  <g id="Groupe_26" data-name="Groupe 26" transform="translate(20.313 3.763) rotate(45)">
    <path id="Tracé_16" data-name="Tracé 16" d="M.875,0H7.431a.875.875,0,0,1,.875.875v20.66a.872.872,0,0,1-.169.517L4.83,26.583a.877.877,0,0,1-.707.358h0a.876.876,0,0,1-.709-.365L.163,22.045A.88.88,0,0,1,0,21.535V.875A.875.875,0,0,1,.875,0Zm5.68,1.75H1.75v19.5l2.38,3.319L6.555,21.25Z" fill="#091625"/>
    <path id="Ligne_39" data-name="Ligne 39" d="M6.9,1.75H0V0H6.9Z" transform="translate(1.3 3.629)" fill="#091625"/>
    <path id="Ligne_40" data-name="Ligne 40" d="M6.9,1.75H0V0H6.9Z" transform="translate(1.3 20.184)" fill="#091625"/>
  </g>
</svg>
