<svg id="icon-heart" xmlns="http://www.w3.org/2000/svg" xmlns:xlink="http://www.w3.org/1999/xlink" width="30" height="30" viewBox="0 0 30 30">
  <defs>
    <clipPath id="clip-path">
      <path id="Shape" d="M10.561,18.665a.916.916,0,0,1-.652-.27L1.753,10.239a6,6,0,0,1,8.482-8.481l.325.325.326-.325a6,6,0,0,1,8.481,0A6.036,6.036,0,0,1,21.125,6a5.954,5.954,0,0,1-1.757,4.24l-8.155,8.156A.916.916,0,0,1,10.561,18.665ZM5.995,1.846A4.153,4.153,0,0,0,3.058,8.935l7.5,7.5,6.525-6.525.979-.978a4.153,4.153,0,1,0-5.874-5.873l-.978.978a.922.922,0,0,1-1.3,0L8.93,3.062A4.123,4.123,0,0,0,5.995,1.846Z" transform="translate(0)" fill="#091625"/>
    </clipPath>
  </defs>
  <rect id="Rectangle_149" data-name="Rectangle 149" width="30" height="30" fill="none"/>
  <g id="Groupe_8" data-name="Groupe 8" transform="translate(5.003 6.25)">
    <path id="Shape-2" data-name="Shape" d="M10.561,18.665a.916.916,0,0,1-.652-.27L1.753,10.239a6,6,0,0,1,8.482-8.481l.325.325.326-.325a6,6,0,0,1,8.481,0A6.036,6.036,0,0,1,21.125,6a5.954,5.954,0,0,1-1.757,4.24l-8.155,8.156A.916.916,0,0,1,10.561,18.665ZM5.995,1.846A4.153,4.153,0,0,0,3.058,8.935l7.5,7.5,6.525-6.525.979-.978a4.153,4.153,0,1,0-5.874-5.873l-.978.978a.922.922,0,0,1-1.3,0L8.93,3.062A4.123,4.123,0,0,0,5.995,1.846Z" transform="translate(0)" fill="#091625"/>
  </g>
</svg>
