<svg id="icon-user" xmlns="http://www.w3.org/2000/svg" xmlns:xlink="http://www.w3.org/1999/xlink" width="30" height="30" viewBox="0 0 30 30">
  <defs>
    <clipPath id="clip-path">
      <path id="Combined_Shape" data-name="Combined Shape" d="M17.5,21.875a1.1,1.1,0,0,1-1.095-1.094V18.594a3.285,3.285,0,0,0-3.281-3.282H5.469a3.285,3.285,0,0,0-3.282,3.282v2.187a1.094,1.094,0,1,1-2.187,0V18.594a5.475,5.475,0,0,1,5.469-5.469h7.657a5.475,5.475,0,0,1,5.469,5.469v2.187A1.1,1.1,0,0,1,17.5,21.875ZM9.3,10.937a5.469,5.469,0,1,1,5.469-5.469A5.475,5.475,0,0,1,9.3,10.937Zm0-8.75a3.282,3.282,0,1,0,3.282,3.282A3.285,3.285,0,0,0,9.3,2.187Z" transform="translate(0 0)" fill="#091625"/>
    </clipPath>
    <clipPath id="clip-path-2">
      <path id="Shape" d="M1.867,2.508A1.094,1.094,0,0,0,.32,4.055L2.508,6.242a1.094,1.094,0,0,0,1.547,0L8.43,1.867A1.094,1.094,0,0,0,6.883.32l-3.6,3.6Z" fill="#091625"/>
    </clipPath>
  </defs>
  <rect id="Rectangle_95" data-name="Rectangle 95" width="30" height="30" fill="none"/>
  <g id="Groupe_20" data-name="Groupe 20" transform="translate(2.5 3.75)">
    <path id="Combined_Shape-2" data-name="Combined Shape" d="M17.5,21.875a1.1,1.1,0,0,1-1.095-1.094V18.594a3.285,3.285,0,0,0-3.281-3.282H5.469a3.285,3.285,0,0,0-3.282,3.282v2.187a1.094,1.094,0,1,1-2.187,0V18.594a5.475,5.475,0,0,1,5.469-5.469h7.657a5.475,5.475,0,0,1,5.469,5.469v2.187A1.1,1.1,0,0,1,17.5,21.875ZM9.3,10.937a5.469,5.469,0,1,1,5.469-5.469A5.475,5.475,0,0,1,9.3,10.937Zm0-8.75a3.282,3.282,0,1,0,3.282,3.282A3.285,3.285,0,0,0,9.3,2.187Z" transform="translate(0 0)" fill="#091625"/>
  </g>
  <g id="Groupe_21" data-name="Groupe 21" transform="translate(20 10.313)">
    <path id="Shape-2" data-name="Shape" d="M1.867,2.508A1.094,1.094,0,0,0,.32,4.055L2.508,6.242a1.094,1.094,0,0,0,1.547,0L8.43,1.867A1.094,1.094,0,0,0,6.883.32l-3.6,3.6Z" fill="#091625"/>
  </g>
</svg>
