<svg id="icon-burger" xmlns="http://www.w3.org/2000/svg" width="30" height="30" viewBox="0 0 30 30">
  <rect id="Rectangle_229" data-name="Rectangle 229" width="30" height="30" fill="none"/>
  <path id="Burger" d="M1,13.125a1,1,0,0,1-1-1V11.5a1,1,0,0,1,1-1H16.5a1,1,0,0,1,1,1v.625a1,1,0,0,1-1,1Zm0-5.25a1,1,0,0,1-1-1V6.25a1,1,0,0,1,1-1H16.5a1,1,0,0,1,1,1v.626a1,1,0,0,1-1,1Zm0-5.25a1,1,0,0,1-1-1V1A1,1,0,0,1,1,0H16.5a1,1,0,0,1,1,1v.626a1,1,0,0,1-1,1Z" transform="translate(6.25 8.75)" fill="#091625"/>
</svg>
