<svg id="icon-lock" xmlns="http://www.w3.org/2000/svg" xmlns:xlink="http://www.w3.org/1999/xlink" width="30" height="30" viewBox="0 0 30 30">
  <defs>
    <clipPath id="clip-path">
      <path id="Combined_Shape" data-name="Combined Shape" d="M3,22a3,3,0,0,1-3-3V12A3,3,0,0,1,3,9H4V6A6,6,0,1,1,16,6V9h1a3,3,0,0,1,3,3v7a3,3,0,0,1-3,3ZM2,12v7a1,1,0,0,0,1,1H17a1,1,0,0,0,1-1V12a1,1,0,0,0-1-1H3A1,1,0,0,0,2,12ZM14,9V6A4,4,0,0,0,6,6V9Z" fill="#091625"/>
    </clipPath>
  </defs>
  <rect id="Rectangle_145" data-name="Rectangle 145" width="30" height="30" fill="none"/>
  <path id="Combined_Shape-2" data-name="Combined Shape" d="M3,22a3,3,0,0,1-3-3V12A3,3,0,0,1,3,9H4V6A6,6,0,1,1,16,6V9h1a3,3,0,0,1,3,3v7a3,3,0,0,1-3,3ZM2,12v7a1,1,0,0,0,1,1H17a1,1,0,0,0,1-1V12a1,1,0,0,0-1-1H3A1,1,0,0,0,2,12ZM14,9V6A4,4,0,0,0,6,6V9Z" transform="translate(5 3.75)" fill="#091625"/>
</svg>
