<svg id="icon-ecosystem" xmlns="http://www.w3.org/2000/svg" width="30" height="30" viewBox="0 0 30 30">
  <rect id="Rectangle_261" data-name="Rectangle 261" width="30" height="30" fill="none"/>
  <path id="Combined_Shape" data-name="Combined Shape" d="M9.739,16.351a2.85,2.85,0,0,1,1.892-3.17V8.125A4.056,4.056,0,0,1,9.49,6.843L5.4,10.8a2.852,2.852,0,1,1-4.847-.361,2.851,2.851,0,0,1,3.58-.906L8.608,5.2a4.15,4.15,0,0,1-.145-1.091,4.063,4.063,0,1,1,8.126,0,4.151,4.151,0,0,1-.154,1.117l.036.034,4.565,4.288a2.829,2.829,0,0,1,3.276.516l.012.012a2.86,2.86,0,0,1-3.576,4.409,2.8,2.8,0,0,1-.471-.379h0a2.822,2.822,0,0,1-.513-3.267L15.533,6.87a4.065,4.065,0,0,1-2.111,1.253v5.057a2.852,2.852,0,1,1-3.683,3.17Zm1.755-.462a1.033,1.033,0,1,0,1.033-1.046A1.04,1.04,0,0,0,11.494,15.888Zm10.07-4.525a1.033,1.033,0,1,0,1.469-.009,1.024,1.024,0,0,0-.727-.3A1.046,1.046,0,0,0,21.564,11.364Zm-19.447-.01a1.033,1.033,0,1,0,1.469-.009,1.024,1.024,0,0,0-.727-.3A1.046,1.046,0,0,0,2.117,11.354Zm8.137-7.241a2.272,2.272,0,1,0,2.271-2.3A2.288,2.288,0,0,0,10.254,4.113Z" transform="translate(2.412 6.25)" fill="#091625"/>
</svg>
