<svg id="icon-formatting" xmlns="http://www.w3.org/2000/svg" width="30" height="30" viewBox="0 0 30 30">
  <path id="Soustraction_13" data-name="Soustraction 13" d="M16.867,22.235a2.5,2.5,0,0,1-1.783-.739l-4.906-4.905,1.193-1.2,4.893,4.893a.878.878,0,0,0,1.182,0l2.869-2.816-.029-.024a.875.875,0,0,0,.258-.608.847.847,0,0,0-.258-.6L16.91,12.863,15.479,14.3l-1.186-1.181,1.438-1.437-.322-.318,1.182-1.183,4.9,4.9a2.539,2.539,0,0,1,0,3.574L18.652,21.5A2.5,2.5,0,0,1,16.867,22.235Zm-.238-3.623h0l-1.193-1.189,1.992-1.991,1.189,1.194-1.984,1.986ZM5.807,12.22h0L.74,7.151a2.525,2.525,0,0,1,0-3.572L3.58.738a2.527,2.527,0,0,1,3.57,0L12.482,6.07,11.236,7.218,10.918,6.9,9.486,8.332,8.3,7.151,9.738,5.715l-1.8-1.8L6.5,5.352,5.324,4.171,6.756,2.734l-.785-.788A.856.856,0,0,0,5.377,1.7a.844.844,0,0,0-.588.242L1.949,4.787a.855.855,0,0,0,0,1.186l5.1,5.1L5.809,12.22Z" transform="translate(3.749 3.749)" fill="#091625"/>
  <rect id="Rectangle_117" data-name="Rectangle 117" width="30" height="30" fill="none"/>
  <g id="Groupe_26" data-name="Groupe 26" transform="translate(20.313 3.763) rotate(45)">
    <path id="Tracé_16" data-name="Tracé 16" d="M.875,0H7.431a.875.875,0,0,1,.875.875v20.66a.872.872,0,0,1-.169.517L4.83,26.583a.877.877,0,0,1-.707.358h0a.876.876,0,0,1-.709-.365L.163,22.045A.88.88,0,0,1,0,21.535V.875A.875.875,0,0,1,.875,0Zm5.68,1.75H1.75v19.5l2.38,3.319L6.555,21.25Z" fill="#091625"/>
    <path id="Ligne_39" data-name="Ligne 39" d="M6.9,1.75H0V0H6.9Z" transform="translate(1.3 3.629)" fill="#091625"/>
    <path id="Ligne_40" data-name="Ligne 40" d="M6.9,1.75H0V0H6.9Z" transform="translate(1.3 20.184)" fill="#091625"/>
  </g>
</svg>
