<svg id="icon-help" xmlns="http://www.w3.org/2000/svg" xmlns:xlink="http://www.w3.org/1999/xlink" width="30" height="30" viewBox="0 0 30 30">
  <defs>
    <clipPath id="clip-path">
      <path id="Combined_Shape" data-name="Combined Shape" d="M0,12A12,12,0,1,1,12,24,12.014,12.014,0,0,1,0,12Zm2.182,0A9.818,9.818,0,1,0,12,2.182,9.829,9.829,0,0,0,2.182,12Zm8.54,5.126c0-.868.389-1.3,1.164-1.324a1.077,1.077,0,0,1,1.207,1.187,1.065,1.065,0,0,1-1.147,1.192A1.091,1.091,0,0,1,10.722,17.126ZM11.1,14.4a.977.977,0,0,1-.138-.482A3.234,3.234,0,0,1,12.284,11.2a9.814,9.814,0,0,0,1.054-.93,1.167,1.167,0,0,0,.272-.654,1.007,1.007,0,0,0-1.052-1.127,2.029,2.029,0,0,0-2,.889.976.976,0,0,1-1.013.466.893.893,0,0,1-.712-1.338A2.99,2.99,0,0,1,10.29,7.062,5.06,5.06,0,0,1,12.4,6.546a10.388,10.388,0,0,1,1.23.2A2.807,2.807,0,0,1,15.7,9.408a2.42,2.42,0,0,1-.979,2.21h0c-.33.257-.677.49-1.01.74a1.641,1.641,0,0,0-.739,1.466.931.931,0,0,1-.671.93,1.03,1.03,0,0,1-1.2-.36Z" fill="#091625"/>
    </clipPath>
  </defs>
  <rect id="Rectangle_243" data-name="Rectangle 243" width="30" height="30" fill="none"/>
  <g id="Groupe_4" data-name="Groupe 4" transform="translate(3 3)">
    <path id="Combined_Shape-2" data-name="Combined Shape" d="M0,12A12,12,0,1,1,12,24,12.014,12.014,0,0,1,0,12Zm2.182,0A9.818,9.818,0,1,0,12,2.182,9.829,9.829,0,0,0,2.182,12Zm8.54,5.126c0-.868.389-1.3,1.164-1.324a1.077,1.077,0,0,1,1.207,1.187,1.065,1.065,0,0,1-1.147,1.192A1.091,1.091,0,0,1,10.722,17.126ZM11.1,14.4a.977.977,0,0,1-.138-.482A3.234,3.234,0,0,1,12.284,11.2a9.814,9.814,0,0,0,1.054-.93,1.167,1.167,0,0,0,.272-.654,1.007,1.007,0,0,0-1.052-1.127,2.029,2.029,0,0,0-2,.889.976.976,0,0,1-1.013.466.893.893,0,0,1-.712-1.338A2.99,2.99,0,0,1,10.29,7.062,5.06,5.06,0,0,1,12.4,6.546a10.388,10.388,0,0,1,1.23.2A2.807,2.807,0,0,1,15.7,9.408a2.42,2.42,0,0,1-.979,2.21h0c-.33.257-.677.49-1.01.74a1.641,1.641,0,0,0-.739,1.466.931.931,0,0,1-.671.93,1.03,1.03,0,0,1-1.2-.36Z" fill="#091625"/>
  </g>
</svg>
