<svg id="icon-export" xmlns="http://www.w3.org/2000/svg" width="30" height="30" viewBox="0 0 30 30">
  <rect id="Rectangle" width="30" height="30" fill="none"/>
  <path id="Fill_1" data-name="Fill 1" d="M.4,4.726A1.037,1.037,0,0,0,.235,6.2a1.088,1.088,0,0,0,1.506.164L5.357,3.53V13.95a1.071,1.071,0,0,0,2.143,0V3.529l3.617,2.837A1.088,1.088,0,0,0,12.622,6.2a1.038,1.038,0,0,0-.167-1.477L6.428,0Z" transform="translate(8.572 6.25)" fill="#091625"/>
  <path id="Tracé_7" data-name="Tracé 7" d="M-12323.889-9865.106h-17.2a1.061,1.061,0,0,1-1.062-1.062v-4.375a1.061,1.061,0,0,1,1.063-1.062,1.062,1.062,0,0,1,1.063,1.062v3.313h15.07v-3.129a1.061,1.061,0,0,1,1.063-1.062,1.06,1.06,0,0,1,1.061,1.062v4.19A1.061,1.061,0,0,1-12323.889-9865.106Z" transform="translate(12347.334 9889.544)" fill="#091625"/>
</svg>
