<svg id="icon-send" xmlns="http://www.w3.org/2000/svg" width="30" height="30" viewBox="0 0 30 30">
  <rect id="Rectangle_426" data-name="Rectangle 426" width="30" height="30" fill="none"/>
  <path id="Tracé_74" data-name="Tracé 74" d="M-13487.492,7598.031a1,1,0,0,1,.707.292,1,1,0,0,1,.225,1.073l-8.035,20.464a1,1,0,0,1-.889.634h-.043a1,1,0,0,1-.9-.557l-3.918-7.933-8.1-3.97a1,1,0,0,1-.561-.937,1,1,0,0,1,.633-.891l20.506-8.106A1,1,0,0,1-13487.492,7598.031Zm-8.141,18.993,6.369-16.218-16.262,6.43,6.371,3.122a1,1,0,0,1,.455.455Z" transform="translate(13512.75 -7594.242)" fill="#091625"/>
  <path id="Tracé_75" data-name="Tracé 75" d="M-13497.633,7612.435l-1.416-1.412,12.422-12.465,1.416,1.413Z" transform="translate(13511.177 -7594.476)" fill="#091625"/>
</svg>
