<svg id="icon-share" xmlns="http://www.w3.org/2000/svg" xmlns:xlink="http://www.w3.org/1999/xlink" width="30" height="30" viewBox="0 0 30 30">
  <defs>
    <clipPath id="clip-path">
      <path id="Combined_Shape" data-name="Combined Shape" d="M12,18a3.991,3.991,0,0,1,.151-1.091l-5.311-3.1a4,4,0,1,1,0-5.627l5.31-3.1A4.009,4.009,0,1,1,13.16,6.813l-5.31,3.1a4.011,4.011,0,0,1,0,2.174l5.313,3.1A4,4,0,1,1,12,18Zm2,0a2,2,0,1,0,.336-1.109,1,1,0,0,1-.119.2A1.987,1.987,0,0,0,14,18ZM2,11a2,2,0,0,0,3.706,1.042l.02-.037.023-.037a2,2,0,0,0,0-1.937l-.023-.037-.021-.037A2,2,0,0,0,2,11ZM16,6a2,2,0,1,0-1.753-1.037l.027.043.024.045A2,2,0,0,0,16,6Z" fill="#091625"/>
    </clipPath>
  </defs>
  <rect id="Rectangle_250" data-name="Rectangle 250" width="30" height="30" fill="none"/>
  <g id="Groupe_9" data-name="Groupe 9" transform="translate(3.75 3.75)">
    <path id="Combined_Shape-2" data-name="Combined Shape" d="M12,18a3.991,3.991,0,0,1,.151-1.091l-5.311-3.1a4,4,0,1,1,0-5.627l5.31-3.1A4.009,4.009,0,1,1,13.16,6.813l-5.31,3.1a4.011,4.011,0,0,1,0,2.174l5.313,3.1A4,4,0,1,1,12,18Zm2,0a2,2,0,1,0,.336-1.109,1,1,0,0,1-.119.2A1.987,1.987,0,0,0,14,18ZM2,11a2,2,0,0,0,3.706,1.042l.02-.037.023-.037a2,2,0,0,0,0-1.937l-.023-.037-.021-.037A2,2,0,0,0,2,11ZM16,6a2,2,0,1,0-1.753-1.037l.027.043.024.045A2,2,0,0,0,16,6Z" fill="#091625"/>
  </g>
</svg>
