<svg id="icon-megamenu" xmlns="http://www.w3.org/2000/svg" width="30" height="30" viewBox="0 0 30 30">
  <rect id="Rectangle_245" data-name="Rectangle 245" width="30" height="30" fill="none"/>
  <path id="Mega-Menu" d="M16.937,21.25a1,1,0,0,1-1-1V16.937a1,1,0,0,1,1-1H20.25a1,1,0,0,1,1,1V20.25a1,1,0,0,1-1,1Zm-7.969,0a1,1,0,0,1-1-1V16.937a1,1,0,0,1,1-1h3.313a1,1,0,0,1,1,1V20.25a1,1,0,0,1-1,1ZM1,21.25a1,1,0,0,1-1-1V16.937a1,1,0,0,1,1-1H4.313a1,1,0,0,1,1,1V20.25a1,1,0,0,1-1,1Zm15.937-7.969a1,1,0,0,1-1-1V8.969a1,1,0,0,1,1-1H20.25a1,1,0,0,1,1,1v3.313a1,1,0,0,1-1,1Zm-7.969,0a1,1,0,0,1-1-1V8.969a1,1,0,0,1,1-1h3.313a1,1,0,0,1,1,1v3.313a1,1,0,0,1-1,1ZM1,13.281a1,1,0,0,1-1-1V8.969a1,1,0,0,1,1-1H4.313a1,1,0,0,1,1,1v3.313a1,1,0,0,1-1,1ZM16.937,5.313a1,1,0,0,1-1-1V1a1,1,0,0,1,1-1H20.25a1,1,0,0,1,1,1V4.313a1,1,0,0,1-1,1Zm-7.969,0a1,1,0,0,1-1-1V1a1,1,0,0,1,1-1h3.313a1,1,0,0,1,1,1V4.313a1,1,0,0,1-1,1ZM1,5.313a1,1,0,0,1-1-1V1A1,1,0,0,1,1,0H4.313a1,1,0,0,1,1,1V4.313a1,1,0,0,1-1,1Z" transform="translate(4.375 4.375)" fill="#091625"/>
</svg>
