<svg id="icon_user2" xmlns="http://www.w3.org/2000/svg" width="30" height="30" viewBox="0 0 30 30">
  <rect id="Rectangle_259" data-name="Rectangle 259" width="30" height="30" fill="none"/>
  <path id="Combined_Shape" data-name="Combined Shape" d="M8.78,18.752H0V15.006a5.753,5.753,0,0,1,1.359-3.4A4.482,4.482,0,0,1,5.076,10h7.378a4.48,4.48,0,0,1,3.716,1.609,5.753,5.753,0,0,1,1.359,3.4v3.745ZM4.922,4.511C4.922,2.018,6.635,0,8.75,0s3.828,2.018,3.828,4.511S10.865,9.023,8.75,9.023,4.922,7,4.922,4.511Z" transform="translate(6.25 5)" fill="#091625"/>
</svg>
