<svg id="icon-add" xmlns="http://www.w3.org/2000/svg" xmlns:xlink="http://www.w3.org/1999/xlink" width="30" height="30" viewBox="0 0 30 30">
  <defs>
    <clipPath id="clip-path">
      <path id="Combined_Shape" data-name="Combined Shape" d="M0,11.25A11.25,11.25,0,1,1,11.25,22.5,11.263,11.263,0,0,1,0,11.25Zm2.045,0a9.2,9.2,0,1,0,9.2-9.2A9.215,9.215,0,0,0,2.045,11.25Zm8.182,4.09V12.273H7.16a1.023,1.023,0,0,1,0-2.045h3.068V7.16a1.023,1.023,0,1,1,2.045,0v3.068H15.34a1.023,1.023,0,0,1,0,2.045H12.273V15.34a1.023,1.023,0,0,1-2.045,0Z" fill="#091625"/>
    </clipPath>
  </defs>
  <rect id="Rectangle_256" data-name="Rectangle 256" width="30" height="30" fill="none"/>
  <g id="Groupe_1" data-name="Groupe 1" transform="translate(3.75 3.75)">
    <path id="Combined_Shape-2" data-name="Combined Shape" d="M0,11.25A11.25,11.25,0,1,1,11.25,22.5,11.263,11.263,0,0,1,0,11.25Zm2.045,0a9.2,9.2,0,1,0,9.2-9.2A9.215,9.215,0,0,0,2.045,11.25Zm8.182,4.09V12.273H7.16a1.023,1.023,0,0,1,0-2.045h3.068V7.16a1.023,1.023,0,1,1,2.045,0v3.068H15.34a1.023,1.023,0,0,1,0,2.045H12.273V15.34a1.023,1.023,0,0,1-2.045,0Z" fill="#091625"/>
  </g>
</svg>
