<svg id="icon-search" xmlns="http://www.w3.org/2000/svg" xmlns:xlink="http://www.w3.org/1999/xlink" width="30" height="30" viewBox="0 0 30 30">
  <defs>
    <clipPath id="clip-path">
      <path id="Mask" d="M20.512,21.987a1.244,1.244,0,0,1-.876-.358L14.6,16.686V15.632l-.359-.375A8.612,8.612,0,0,1,0,8.677a8.628,8.628,0,1,1,17.256,0,8.694,8.694,0,0,1-2.085,5.646l.372.36h1.049l5.014,4.947a1.249,1.249,0,0,1,.008,1.771l-.217.218A1.239,1.239,0,0,1,20.512,21.987ZM8.628,2.67A6.007,6.007,0,1,0,14.6,8.677,6,6,0,0,0,8.628,2.67Z" transform="translate(0 0)" fill="#091625"/>
    </clipPath>
  </defs>
  <rect id="Rectangle_249" data-name="Rectangle 249" width="30" height="30" fill="none"/>
  <g id="Groupe_8" data-name="Groupe 8" transform="translate(3.75 3.75)">
    <path id="Mask-2" data-name="Mask" d="M20.512,21.987a1.244,1.244,0,0,1-.876-.358L14.6,16.686V15.632l-.359-.375A8.612,8.612,0,0,1,0,8.677a8.628,8.628,0,1,1,17.256,0,8.694,8.694,0,0,1-2.085,5.646l.372.36h1.049l5.014,4.947a1.249,1.249,0,0,1,.008,1.771l-.217.218A1.239,1.239,0,0,1,20.512,21.987ZM8.628,2.67A6.007,6.007,0,1,0,14.6,8.677,6,6,0,0,0,8.628,2.67Z" transform="translate(0 0)" fill="#091625"/>
  </g>
</svg>
