<svg id="icon-access" xmlns="http://www.w3.org/2000/svg" width="30" height="30" viewBox="0 0 30 30">
  <rect id="Rectangle_227" data-name="Rectangle 227" width="30" height="30" fill="none"/>
  <path id="Fill_1" data-name="Fill 1" d="M22.768,21.25h0l-3.34-3.434-.125-.083-1.072-1.1-2.44,2.507-.061.013a10.614,10.614,0,0,1-1.959.194c-.138,0-.277,0-.412-.01l-.448-.023L15.6,16.572a6.073,6.073,0,0,0,1.719-.919l-2.067-2.126a3.276,3.276,0,0,1-.921.344L13.692,14l1-1.024-.853-.874-1.5,1.539-.127-.065A3.387,3.387,0,0,1,10.982,12.5l-.1-.142,1.6-1.641-.83-.856L10.38,11.161l0-.547c0-.028,0-.055,0-.083a3.46,3.46,0,0,1,.4-1.61L8.781,6.868A6.331,6.331,0,0,0,7.695,9.391l-.012.062L5.7,11.488l-.028-.45c-.011-.16-.012-.316-.012-.447a8.654,8.654,0,0,1,.255-2.073l.015-.052.036-.041,2.144-2.2-.831-.856-6.3,6.474L.847,11.67c-.222-.275-.363-.464-.412-.532L0,10.531l.417-.585A26.678,26.678,0,0,1,4.253,5.87a21.515,21.515,0,0,1,2.04-1.557L3.455,1.4,4.812,0,8,3.283a12.375,12.375,0,0,1,5.743-1.555c3.062,0,6.344,1.431,9.491,4.139a26.353,26.353,0,0,1,3.825,4.065l.008.014.429.6-.422.586a26.524,26.524,0,0,1-3.835,4.078,21.993,21.993,0,0,1-2.089,1.6l2.969,3.054-1.354,1.394ZM20.516,6.211h0a8.442,8.442,0,0,1,.1,8.568,24.507,24.507,0,0,0,4.456-4.251A24.74,24.74,0,0,0,20.516,6.211ZM13.7,7.116a3.367,3.367,0,0,1,3.315,3.409,3.454,3.454,0,0,1-.4,1.611l2.057,2.115a6.329,6.329,0,0,0,1.153-3.659A6.217,6.217,0,0,0,13.7,4.3a5.942,5.942,0,0,0-3.558,1.182l1.989,2.043A3.267,3.267,0,0,1,13.7,7.116ZM11.468,19.081h0l-.106-.025a13.185,13.185,0,0,1-1.682-.514l-.291-.109L11.365,16.4l.12.047a6.009,6.009,0,0,0,1.691.4l.425.037-2.133,2.193Zm-3.252-1.19h0l-.127-.067c-.477-.248-.946-.518-1.394-.8l-.209-.136L8.859,14.44,9,14.613a5.862,5.862,0,0,0,1.079,1.027l.191.141L8.217,17.89ZM5.49,16.19h0l-.135-.1c-.416-.316-.776-.607-1.1-.89-.04-.037-.074-.066-.108-.093l-.171-.143,1.372-1.406.14.123c.372.324.774.646,1.195.958l.017.012L6.676,14.6a8.076,8.076,0,0,1-.659-1.587L5.979,12.9,7.6,11.23l.063.389a6.494,6.494,0,0,0,.5,1.633l.059.131L6.867,14.775,5.491,16.189ZM3.108,14.15h0l-.14-.137c-.369-.365-.732-.741-1.078-1.12l-.132-.145,1.36-1.4.142.153c.356.392.713.764,1.061,1.106l.147.144-1.359,1.4Z" transform="translate(1.25 3.75)" fill="#091625"/>
</svg>
