<svg id="icon-import" xmlns="http://www.w3.org/2000/svg" width="30" height="30" viewBox="0 0 30 30">
  <rect id="Rectangle" width="30" height="30" fill="none"/>
  <path id="Fill_1" data-name="Fill 1" d="M.4,10.274A1.036,1.036,0,0,1,.235,8.8a1.088,1.088,0,0,1,1.506-.164L5.357,11.47V1.05a1.072,1.072,0,0,1,2.143,0v10.42l3.617-2.837a1.088,1.088,0,0,1,1.506.164,1.038,1.038,0,0,1-.167,1.477L6.428,15Z" transform="translate(8.571 6.25)" fill="#091625"/>
  <path id="Tracé_7" data-name="Tracé 7" d="M-12323.889-9865.106h-17.2a1.061,1.061,0,0,1-1.062-1.062v-4.375a1.061,1.061,0,0,1,1.063-1.062,1.062,1.062,0,0,1,1.063,1.062v3.313h15.07v-3.129a1.061,1.061,0,0,1,1.063-1.062,1.06,1.06,0,0,1,1.061,1.062v4.19A1.061,1.061,0,0,1-12323.889-9865.106Z" transform="translate(12347.334 9889.544)" fill="#091625"/>
</svg>
