<svg id="icon-clock" xmlns="http://www.w3.org/2000/svg" width="30" height="30" viewBox="0 0 30 30">
  <rect id="Rectangle_263" data-name="Rectangle 263" width="30" height="30" fill="none"/>
  <path id="Fill_1" data-name="Fill 1" d="M11.25,22.5A11.25,11.25,0,1,1,22.5,11.25,11.263,11.263,0,0,1,11.25,22.5Zm0-20.854a9.6,9.6,0,1,0,9.6,9.6A9.615,9.615,0,0,0,11.25,1.646ZM16.723,15.64a.773.773,0,0,1-.385-.1l-5.551-3.2a.771.771,0,0,1-.385-.665V4.747a.769.769,0,1,1,1.538,0v6.48l5.167,2.98a.766.766,0,0,1,.28,1.048A.768.768,0,0,1,16.723,15.64Z" transform="translate(3.75 3.75)" fill="#091625"/>
</svg>
