<svg id="icon-alert-circle" xmlns="http://www.w3.org/2000/svg" width="30" height="30" viewBox="0 0 30 30">
  <rect id="Rectangle_alert" data-name="Rectangle alert" width="30" height="30" fill="none"/>
  <path
    id="Combined_Shape"
    data-name="Combined Shape"
    d="M0,11.25A11.25,11.25,0,1,1,11.25,22.5,11.263,11.263,0,0,1,0,11.25Zm2.045,0a9.2,9.2,0,1,0,9.2-9.2A9.215,9.215,0,0,0,2.045,11.25Z
       M10.1,6.65a1.15,1.15,0,1,1,2.3,0L12.4,12.35a1.15,1.15,0,1,1,-2.3,0Z
       M9.95,17a1.3,1.3,0,1,1,2.6,0a1.3,1.3,0,1,1,-2.6,0Z"
    transform="translate(3.75 3.75)"
    fill="#091625"
  />
</svg>
