<svg id="icon-line" xmlns="http://www.w3.org/2000/svg" width="30" height="30" viewBox="0 0 30 30">
  <rect id="Rectangle_119" data-name="Rectangle 119" width="30" height="30" fill="none"/>
  <g id="Ligne" transform="translate(3.75 3.75)">
    <path id="Tracé_29" data-name="Tracé 29" d="M15463.625,10468.25a2.625,2.625,0,1,1,2.625-2.624A2.626,2.626,0,0,1,15463.625,10468.25Zm0-3.25a.626.626,0,1,0,.627.626A.626.626,0,0,0,15463.625,10465Z" transform="translate(-15461.002 -10445.749)" fill="#091625"/>
    <path id="Tracé_28" data-name="Tracé 28" d="M15463.625,10468.25a2.625,2.625,0,1,1,2.625-2.624A2.626,2.626,0,0,1,15463.625,10468.25Zm0-3.25a.626.626,0,1,0,.627.626A.626.626,0,0,0,15463.625,10465Z" transform="translate(-15456.594 -10459.524)" fill="#091625"/>
    <path id="Tracé_31" data-name="Tracé 31" d="M15463.625,10468.25a2.625,2.625,0,1,1,2.625-2.624A2.626,2.626,0,0,1,15463.625,10468.25Zm0-3.25a.626.626,0,1,0,.627.626A.626.626,0,0,0,15463.625,10465Z" transform="translate(-15443.754 -10463.001)" fill="#091625"/>
    <path id="Tracé_30" data-name="Tracé 30" d="M15463.625,10468.25a2.625,2.625,0,1,1,2.625-2.624A2.626,2.626,0,0,1,15463.625,10468.25Zm0-3.25a.626.626,0,1,0,.627.626A.626.626,0,0,0,15463.625,10465Z" transform="translate(-15447.634 -10448.122)" fill="#091625"/>
    <path id="Tracé_24" data-name="Tracé 24" d="M-12340.652-9658.875l-1.911-.588,3.662-11.873,1.911.588Z" transform="translate(12344.647 9677.998)" fill="#091625"/>
    <path id="Tracé_25" data-name="Tracé 25" d="M-12331.813-9661.075l-7.476-9.528,1.572-1.235,7.476,9.527Z" transform="translate(12346.209 9678.178)" fill="#091625"/>
    <path id="Tracé_26" data-name="Tracé 26" d="M-12332.035-9661.1l-1.941-.483,3.188-12.771,1.94.483Z" transform="translate(12349.396 9677.59)" fill="#091625"/>
  </g>
</svg>
