<svg id="icon-select" xmlns="http://www.w3.org/2000/svg" width="30" height="30" viewBox="0 0 30 30">
  <rect id="Rectangle_283" data-name="Rectangle 283" width="30" height="30" fill="none"/>
  <path id="Union_6" data-name="Union 6" d="M16.683-.178A.977.977,0,0,1,17.3.033,1.021,1.021,0,0,1,17.668,1l-.531,3.274L24.169,4.2a.994.994,0,0,1,1,1.019l-.047,4.466a1.046,1.046,0,0,1-1.02,1.041l-7.008.075.571,3.51a1.061,1.061,0,0,1-.376.989,1,1,0,0,1-1.024.153L.523,8.771A1,1,0,0,1-.082,7.83a1.058,1.058,0,0,1,.624-.955L16.287-.092A1,1,0,0,1,16.683-.178ZM23.138,6.27l-7.2.077A.979.979,0,0,1,15.175,6a1.029,1.029,0,0,1-.222-.826l.427-2.631L3.509,7.791l11.859,5.034L14.9,9.973a1.061,1.061,0,0,1,.23-.843,1.025,1.025,0,0,1,.777-.376l7.2-.077Z" transform="translate(17.212 0.449) rotate(67)" fill="#091625"/>
</svg>
