<svg id="icon_map2" xmlns="http://www.w3.org/2000/svg" width="30" height="30" viewBox="0 0 30 30">
  <rect id="Rectangle_257" data-name="Rectangle 257" width="30" height="30" fill="none"/>
  <path id="Combined_Shape" data-name="Combined Shape" d="M7.079,8.73l1.947-.6L12.1,12.844a1.682,1.682,0,0,0,.764.651v9.453l-5.79,1.8ZM.395,23.078A.562.562,0,0,1,0,22.531V7.714a.57.57,0,0,1,.737-.547L5.789,8.73V24.746Zm18.816,1.406-5.079-1.563V13.47a1.548,1.548,0,0,0,.79-.626L18,8.1l1.552.469a.562.562,0,0,1,.395.547V23.938a.566.566,0,0,1-.572.57A.605.605,0,0,1,19.211,24.485ZM12.948,12.323l-3.5-5.364a4.621,4.621,0,0,1-.631-2.319A4.682,4.682,0,0,1,13.527,0c.079,0,.159,0,.236.006a4.624,4.624,0,0,1,3.789,6.954l-3.5,5.364a.668.668,0,0,1-1.1,0ZM11.211,4.615A2.289,2.289,0,1,0,13.5,2.349,2.28,2.28,0,0,0,11.211,4.615Z" transform="translate(5.027 2.625)" fill="#091625"/>
</svg>
