<svg id="icon-delivery" xmlns="http://www.w3.org/2000/svg" xmlns:xlink="http://www.w3.org/1999/xlink" width="30" height="30" viewBox="0 0 30 30">
  <defs>
    <clipPath id="clip-path">
      <path id="Combined_Shape" data-name="Combined Shape" d="M9.872,23.741,1.688,19.648A3.083,3.083,0,0,1,0,16.894V7.157A3.05,3.05,0,0,1,1.7,4.412L5.593,2.466a1.027,1.027,0,0,1,.174-.087L9.884.321a3.069,3.069,0,0,1,2.731,0L20.8,4.411a3.05,3.05,0,0,1,1.7,2.747v9.747a3.048,3.048,0,0,1-1.7,2.745l-8.181,4.09a3.071,3.071,0,0,1-2.746,0ZM2.045,16.9a1.027,1.027,0,0,0,.56.918l7.622,3.811v-10L2.045,7.544Zm10.227,4.725,7.614-3.808a1.016,1.016,0,0,0,.568-.915V7.545L16.83,9.357l-.015.007-4.542,2.271ZM11.25,9.86l2.827-1.413L6.142,4.479,3.315,5.893ZM16.364,7.3l2.821-1.41L11.7,2.152a1.02,1.02,0,0,0-.907,0L8.428,3.336Z" fill="#091625"/>
    </clipPath>
  </defs>
  <rect id="Rectangle_152" data-name="Rectangle 152" width="30" height="30" fill="none"/>
  <g id="Groupe_23" data-name="Groupe 23" transform="translate(3.75 2.5)">
    <path id="Combined_Shape-2" data-name="Combined Shape" d="M9.872,23.741,1.688,19.648A3.083,3.083,0,0,1,0,16.894V7.157A3.05,3.05,0,0,1,1.7,4.412L5.593,2.466a1.027,1.027,0,0,1,.174-.087L9.884.321a3.069,3.069,0,0,1,2.731,0L20.8,4.411a3.05,3.05,0,0,1,1.7,2.747v9.747a3.048,3.048,0,0,1-1.7,2.745l-8.181,4.09a3.071,3.071,0,0,1-2.746,0ZM2.045,16.9a1.027,1.027,0,0,0,.56.918l7.622,3.811v-10L2.045,7.544Zm10.227,4.725,7.614-3.808a1.016,1.016,0,0,0,.568-.915V7.545L16.83,9.357l-.015.007-4.542,2.271ZM11.25,9.86l2.827-1.413L6.142,4.479,3.315,5.893ZM16.364,7.3l2.821-1.41L11.7,2.152a1.02,1.02,0,0,0-.907,0L8.428,3.336Z" fill="#091625"/>
  </g>
</svg>
