<svg id="icon-track" xmlns="http://www.w3.org/2000/svg" width="30" height="30" viewBox="0 0 30 30">
  <rect id="Rectangle_550" data-name="Rectangle 550" width="30" height="30" fill="none"/>
  <g id="Trace" transform="translate(3.375 3.375)">
    <g id="Croix" transform="translate(0 16.25)">
      <path id="Ligne_28" data-name="Ligne 28" d="M.2,6.2A1,1,0,0,1-.507,4.493l5-5A1,1,0,0,1,5.907.907l-5,5A1,1,0,0,1,.2,6.2Z" transform="translate(0.8 0.8)" fill="#091625"/>
      <path id="Ligne_29" data-name="Ligne 29" d="M1,7A1,1,0,0,1,.293,5.293l5-5A1,1,0,0,1,6.707,1.707l-5,5A1,1,0,0,1,1,7Z" transform="translate(7 0) rotate(90)" fill="#091625"/>
    </g>
    <g id="Croix-2" data-name="Croix" transform="translate(16.25)">
      <path id="Ligne_28-2" data-name="Ligne 28" d="M.2,6.2A1,1,0,0,1-.507,4.493l5-5A1,1,0,0,1,5.907.907l-5,5A1,1,0,0,1,.2,6.2Z" transform="translate(0.8 0.8)" fill="#091625"/>
      <path id="Ligne_29-2" data-name="Ligne 29" d="M1,7A1,1,0,0,1,.293,5.293l5-5A1,1,0,0,1,6.707,1.707l-5,5A1,1,0,0,1,1,7Z" transform="translate(7 0) rotate(90)" fill="#091625"/>
    </g>
    <path id="Tracé_74" data-name="Tracé 74" d="M-14772.2,14947.591c-.361,0-.736-.008-1.123-.023a33.62,33.62,0,0,1-4.893-.58,1,1,0,0,1-.775-1.182,1,1,0,0,1,.977-.8.915.915,0,0,1,.205.021h0c2.279.471,8.7,1.264,10.977-.709a2.288,2.288,0,0,0,.777-2.025c-.045-.748-.34-1.7-2.24-2.447a26.457,26.457,0,0,0-5.623-1.166,26.649,26.649,0,0,1-5.557-1.143c-2.008-.766-3.031-2.012-3.041-3.707a4.124,4.124,0,0,1,1.428-3.184c1.49-1.328,4.137-2.059,7.861-2.172.348-.01.689-.014,1.018-.014a36.266,36.266,0,0,1,3.988.215,1,1,0,0,1,.871,1.113,1,1,0,0,1-.99.879.868.868,0,0,1-.123-.008c-2.359-.283-8.984-.576-11.295,1.48a2.106,2.106,0,0,0-.76,1.678c.012,1.8,2.729,2.309,6.873,2.879a27.948,27.948,0,0,1,6.082,1.285c2.211.871,3.391,2.279,3.5,4.191a4.31,4.31,0,0,1-1.467,3.658C-14766.875,14947-14769.119,14947.591-14772.2,14947.591Z" transform="translate(14784.745 -14926.26)" fill="#091625"/>
  </g>
</svg>
