<svg id="icon-notification" xmlns="http://www.w3.org/2000/svg" xmlns:xlink="http://www.w3.org/1999/xlink" width="30" height="30" viewBox="0 0 30 30">
  <defs>
    <clipPath id="clip-path">
      <path id="Shape" d="M11.25,22.5A3.078,3.078,0,0,1,8.6,20.968a1.022,1.022,0,0,1,.884-1.536H13.02a1.022,1.022,0,0,1,.884,1.536A3.078,3.078,0,0,1,11.25,22.5Zm10.227-5.11H1.023a1.023,1.023,0,0,1,0-2.046A2.048,2.048,0,0,0,3.068,13.3V8.182a8.182,8.182,0,1,1,16.364,0V13.3a2.048,2.048,0,0,0,2.045,2.045,1.023,1.023,0,0,1,0,2.046ZM11.25,2.045A6.144,6.144,0,0,0,5.113,8.182V13.3a4.088,4.088,0,0,1-.547,2.045H17.934a4.089,4.089,0,0,1-.547-2.045V8.182A6.144,6.144,0,0,0,11.25,2.045Z" transform="translate(0 0)" fill="#091625"/>
    </clipPath>
  </defs>
  <rect id="Rectangle_154" data-name="Rectangle 154" width="30" height="30" fill="none"/>
  <g id="Groupe_1" data-name="Groupe 1" transform="translate(3.75 3.75)">
    <path id="Shape-2" data-name="Shape" d="M11.25,22.5A3.078,3.078,0,0,1,8.6,20.968a1.022,1.022,0,0,1,.884-1.536H13.02a1.022,1.022,0,0,1,.884,1.536A3.078,3.078,0,0,1,11.25,22.5Zm10.227-5.11H1.023a1.023,1.023,0,0,1,0-2.046A2.048,2.048,0,0,0,3.068,13.3V8.182a8.182,8.182,0,1,1,16.364,0V13.3a2.048,2.048,0,0,0,2.045,2.045,1.023,1.023,0,0,1,0,2.046ZM11.25,2.045A6.144,6.144,0,0,0,5.113,8.182V13.3a4.088,4.088,0,0,1-.547,2.045H17.934a4.089,4.089,0,0,1-.547-2.045V8.182A6.144,6.144,0,0,0,11.25,2.045Z" transform="translate(0 0)" fill="#091625"/>
  </g>
</svg>
