<svg id="icon-transparency" xmlns="http://www.w3.org/2000/svg" width="30" height="30" viewBox="0 0 30 30">
  <path id="Fill_1" data-name="Fill 1" d="M9.635,24.923A9.633,9.633,0,0,1,7.613,5.872,9.63,9.63,0,1,1,18.5,19.05,9.633,9.633,0,0,1,9.635,24.923ZM6.976,8.133a7.638,7.638,0,0,0,2.658,14.8,7.6,7.6,0,0,0,6.524-3.681A9.554,9.554,0,0,1,6.976,8.133Zm10.269,6.519-2.436,2.436a7.691,7.691,0,0,0,1.672.19c.155,0,.31-.011.459-.022l.074-.005a7.716,7.716,0,0,0,.263-1.961C17.278,15.066,17.261,14.842,17.245,14.652ZM16.481,1.991A7.593,7.593,0,0,0,9.957,5.672a9.554,9.554,0,0,1,9.182,11.12,7.638,7.638,0,0,0-2.658-14.8ZM15.9,10.929h0l-4.448,4.448a7.693,7.693,0,0,0,1.362.962l3.9-3.9a7.6,7.6,0,0,0-.817-1.507Zm-2.64-2.365h0L9.38,12.447a7.706,7.706,0,0,0,.782,1.482L14.6,9.491a7.727,7.727,0,0,0-1.338-.926ZM9.635,7.645c-.148,0-.3.011-.438.021L9.1,7.674a7.588,7.588,0,0,0-.265,1.961c0,.186.014.372.028.551l0,.033,2.394-2.394A7.626,7.626,0,0,0,9.635,7.645Z" transform="translate(2.5 2.5)" fill="#091625"/>
  <rect id="Rectangle_252" data-name="Rectangle 252" width="30" height="30" fill="none"/>
</svg>
