<svg id="Icon-pedestrain" xmlns="http://www.w3.org/2000/svg" width="30" height="30" viewBox="0 0 30 30">
  <rect id="Rectangle_554" data-name="Rectangle 554" width="30" height="30" fill="none"/>
  <g id="Pedestrain" transform="translate(4.768 3.389)">
    <g id="Pied" transform="translate(11.252)">
      <path id="Tracé_76" data-name="Tracé 76" d="M-10845.294-8417.231a1.013,1.013,0,0,1,.25.031l4.812,1.235a1,1,0,0,1,.751.958c0,.311-.014,3.068-1.477,4.544a3.034,3.034,0,0,1-2.2.914,3.992,3.992,0,0,1-.645-.056,3.161,3.161,0,0,1-2.23-1.468c-1.218-1.972-.319-5.1-.214-5.45A1,1,0,0,1-10845.294-8417.231Zm3.766,3-3.017-.775a4.679,4.679,0,0,0,.211,2.888,1.157,1.157,0,0,0,.864.543,1.744,1.744,0,0,0,.308.027,1.027,1.027,0,0,0,.784-.32A4.335,4.335,0,0,0-10841.528-8414.232Z" transform="translate(10846.792 8430.271)" fill="#091625"/>
      <path id="Tracé_77" data-name="Tracé 77" d="M-10839.7-8413.664a1.008,1.008,0,0,1-.25-.031l-5.309-1.372a1,1,0,0,1-.725-.741c-.051-.223-1.258-5.473-.578-8.329.758-3.183,2.688-3.525,3.484-3.525a3.624,3.624,0,0,1,1.416.3c1.576.667,3.143,1.765,3.914,5.245.746,3.361-.951,7.645-1.025,7.825A1,1,0,0,1-10839.7-8413.664Zm-4.461-3.186,3.822.988a12.481,12.481,0,0,0,.639-5.821c-.605-2.731-1.6-3.354-2.74-3.837a1.663,1.663,0,0,0-.637-.144c-.881,0-1.322,1.081-1.539,1.989C-10845.033-8421.916-10844.51-8418.563-10844.16-8416.85Z" transform="translate(10846.768 8427.663)" fill="#091625"/>
    </g>
    <g id="Pied-2" data-name="Pied" transform="translate(0 2.5)">
      <path id="Tracé_76-2" data-name="Tracé 76" d="M-10840.854-8417.231a1,1,0,0,1,.957.709c.105.351,1,3.479-.214,5.45a3.161,3.161,0,0,1-2.23,1.468,3.992,3.992,0,0,1-.645.056,3.034,3.034,0,0,1-2.2-.914c-1.463-1.476-1.48-4.233-1.477-4.544a1,1,0,0,1,.751-.958l4.812-1.235A1.013,1.013,0,0,1-10840.854-8417.231Zm-2.132,5.682a1.744,1.744,0,0,0,.308-.027,1.155,1.155,0,0,0,.865-.546,4.674,4.674,0,0,0,.213-2.885l-3.018.774a4.344,4.344,0,0,0,.85,2.364A1.024,1.024,0,0,0-10842.986-8411.55Z" transform="translate(10848.567 8430.271)" fill="#091625"/>
      <path id="Tracé_77-2" data-name="Tracé 77" d="M-10844.627-8413.664a1,1,0,0,1-.928-.626c-.073-.181-1.771-4.464-1.025-7.825.772-3.48,2.337-4.578,3.915-5.245a3.613,3.613,0,0,1,1.416-.3c.795,0,2.726.343,3.483,3.525.68,2.856-.527,8.106-.579,8.329a1,1,0,0,1-.724.741l-5.309,1.372A1,1,0,0,1-10844.627-8413.664Zm3.378-12a1.671,1.671,0,0,0-.638.144c-1.14.483-2.135,1.105-2.74,3.837a12.464,12.464,0,0,0,.638,5.821l3.824-.988c.35-1.714.872-5.066.453-6.824C-10839.928-8424.582-10840.369-8425.663-10841.249-8425.663Z" transform="translate(10846.77 8427.663)" fill="#091625"/>
    </g>
  </g>
</svg>
