<svg id="icon-map-background" xmlns="http://www.w3.org/2000/svg" width="30" height="30" viewBox="0 0 30 30">
  <rect id="Rectangle_132" data-name="Rectangle 132" width="30" height="30" fill="none"/>
  <g id="Groupe_40" data-name="Groupe 40" transform="translate(2.935 3.004)">
    <path id="Path" d="M12.663-.7a1.213,1.213,0,0,1,1.226.82,1.512,1.512,0,0,1,.727.38,1.229,1.229,0,0,1,.288.46,2.887,2.887,0,0,1,1.116.907,1.249,1.249,0,0,1,.546-.132c.258,0,1.093.1,1.186,1.427a4.459,4.459,0,0,0,.722.152,3.133,3.133,0,0,1,1.869.737h.025a1.027,1.027,0,0,1,.588.171c.867.058,2.122.162,2.417,1.109.175.563-.073,1.118-.737,1.651a3.9,3.9,0,0,0-.177,1.009A5.532,5.532,0,0,1,22.227,9.3a1.478,1.478,0,0,1-1.186,1.052c-.167.227-.4.548-.654.892a1.3,1.3,0,0,1,.5.4,2.022,2.022,0,0,1,.417,1.936,1.888,1.888,0,0,1,.3.317,1.107,1.107,0,0,1,.042,1.308.875.875,0,0,1-.271.257,1.063,1.063,0,0,1,.111.15,1.2,1.2,0,0,1,.04,1.086,3.488,3.488,0,0,0,.43.1,1.035,1.035,0,0,1,.833.706c.239.754-.342,1.5-1.826,2.98l-.155.156a1.48,1.48,0,0,1-1.461.819,8.764,8.764,0,0,1-2.749-.73c-.265-.1-.628-.239-.734-.261a4.452,4.452,0,0,0-.84-.093c-.219,0-.607.028-.751.216-.075.1-.224.418.009,1.273a.92.92,0,0,1-.155.871,1.694,1.694,0,0,1-1.37.548,6,6,0,0,1-1.929-.414,1.991,1.991,0,0,1-.584.1A1.127,1.127,0,0,1,9.117,22.1c-.129.008-.288.031-.456.056a6.3,6.3,0,0,1-.907.085,2.153,2.153,0,0,1-1.418-.461l-.031-.006a3.929,3.929,0,0,1-1.592-.653l-.036,0a1.054,1.054,0,0,1-.893-.556.943.943,0,0,1-.095-.338,1.036,1.036,0,0,1-.539-1.093.945.945,0,0,1,.7-.721,10.715,10.715,0,0,0,.774-2.973,22.121,22.121,0,0,0,.3-2.826,2.926,2.926,0,0,1-1.353-2.47c-.09-.124-.208-.291-.37-.52l-.182-.257A6,6,0,0,0,.862,8.573L.733,8.558.615,8.507c-.94-.407-1.38-.92-1.308-1.523A1,1,0,0,1-.5,6.5a1.175,1.175,0,0,1-.107-.937,1.427,1.427,0,0,1,1.145-.9,2.472,2.472,0,0,1,.593-.071,3.683,3.683,0,0,1,.52.043l.052.007a1.319,1.319,0,0,1,1.007-.5A1.692,1.692,0,0,1,4.11,5.2,6.946,6.946,0,0,1,4.8,5.066c-.105-.491-.247-1.094-.383-1.628l-.233-.917.933-.161a2.682,2.682,0,0,1,.458-.042,1.842,1.842,0,0,1,1.6.927c.193.275.217.31.518.31a2.169,2.169,0,0,0,.263-.018,4.224,4.224,0,0,1,2.389-1.59q-.014-.031-.026-.063A1.751,1.751,0,0,1,10.7.145,3.026,3.026,0,0,1,12.663-.7Zm.559,2.446a1.542,1.542,0,0,1-.679-.452l-.189.749A2.124,2.124,0,0,1,11.2,3.5a6.449,6.449,0,0,0-1.52.708l-.146.387-.163.422-.438.111A5.054,5.054,0,0,1,7.7,5.3a2.327,2.327,0,0,1-1.11-.252c.185.92.172,1.256-.072,1.57a.888.888,0,0,1-.705.346.908.908,0,0,1-.552-.188,4.856,4.856,0,0,0-.973.184,2.392,2.392,0,0,1-.592.11H3.661c-.563-.018-.8-.474-.969-.807l-.055-.105a1.421,1.421,0,0,1-.813.238,2.347,2.347,0,0,1-.276-.018.946.946,0,0,1,.06.545,7.5,7.5,0,0,1,1.573.544,3.954,3.954,0,0,1,1.138.7l.009.011c.052.068.146.2.308.43.13.184.338.479.421.588a.963.963,0,0,1,.252.639c.044.769.261,1.213.644,1.318a1.112,1.112,0,0,1,.722,1.139,8.711,8.711,0,0,1-.021.922,28.2,28.2,0,0,1-.559,3.88,7.958,7.958,0,0,1-.748,2.228,1.047,1.047,0,0,1,.112.2,1.376,1.376,0,0,1,.251.152,2.187,2.187,0,0,0,.952.38,1.352,1.352,0,0,1,.779.36.463.463,0,0,0,.315.071,4.927,4.927,0,0,0,.655-.067,5.585,5.585,0,0,1,.795-.077,1.53,1.53,0,0,1,1.426.761,1.2,1.2,0,0,1,.247-.027.964.964,0,0,1,.426.1,5.655,5.655,0,0,0,1.129.328,2.661,2.661,0,0,1,.45-1.976,2.526,2.526,0,0,1,2.142-.9,6.186,6.186,0,0,1,1.177.126,7.179,7.179,0,0,1,1.021.343,8.662,8.662,0,0,0,2.086.615,3.183,3.183,0,0,1,.418-.462q.6-.6.951-1a1.671,1.671,0,0,1-.824-.7,1.337,1.337,0,0,1-.148-.881,1.075,1.075,0,0,1-.719-.794,1.412,1.412,0,0,1,.692-1.394,1.14,1.14,0,0,1-.288-.637,1.109,1.109,0,0,1,.192-.71.676.676,0,0,0,.063-.121.455.455,0,0,0-.083-.2,1.6,1.6,0,0,0-.211-.012,3.2,3.2,0,0,0-.438.033l-2.085.328,1.239-1.707s.455-.625.912-1.251c.229-.314.459-.627.632-.862l.215-.29A.944.944,0,0,1,20.6,8.6h.018a7.147,7.147,0,0,0,.1-.775A3.993,3.993,0,0,1,21.191,6q-.184-.018-.411-.033c-.111-.007-.2-.013-.275-.021a1.112,1.112,0,0,1-.412-.12,1.128,1.128,0,0,1-1.02-.564,2.979,2.979,0,0,0-.87-.216,4.538,4.538,0,0,1-1.222-.31,1.647,1.647,0,0,1-.824-.79.924.924,0,0,1-.453.117.9.9,0,0,1-.871-.664,1.712,1.712,0,0,0-.154-.354l-.03-.049-.021-.049a1.315,1.315,0,0,0-.738-.507l-.712-.173Z" transform="translate(0.7 0.7)" fill="#091625"/>
  </g>
</svg>
