<svg id="icon-new" xmlns="http://www.w3.org/2000/svg" xmlns:xlink="http://www.w3.org/1999/xlink" width="30" height="30" viewBox="0 0 30 30">
  <defs>
    <clipPath id="clip-path">
      <path id="Combined_Shape" data-name="Combined Shape" d="M.254,18.1A.822.822,0,0,1,0,17.5V4.168a.835.835,0,0,1,.42-.723L6.241.118A.828.828,0,0,1,6.611,0h.106l.021,0h0a.828.828,0,0,1,.3.084h0l.005,0,6.261,3.131L18.754.111A.826.826,0,0,1,19.166,0,.836.836,0,0,1,20,.835V14.168a.836.836,0,0,1-.42.723l-5.832,3.332h0l-.018.01-.009,0-.01,0a.821.821,0,0,1-.6.058l-.008,0-.008,0a.828.828,0,0,1-.148-.06L6.693,15.113,1.247,18.225a.829.829,0,0,1-.412.111A.849.849,0,0,1,.254,18.1ZM12.5,16.153V4.682l-5-2.5v11.47Zm1.667-.087,4.166-2.381V2.27L14.167,4.651ZM1.666,4.652V16.065l4.167-2.38V2.271Z" fill="#091625"/>
    </clipPath>
    <clipPath id="clip-path-2">
      <path id="Combined_Shape-2" data-name="Combined Shape" d="M0,5.625A5.625,5.625,0,1,1,5.625,11.25,5.631,5.631,0,0,1,0,5.625Zm1.023,0a4.6,4.6,0,1,0,4.6-4.6A4.607,4.607,0,0,0,1.023,5.625ZM5.114,7.67V6.136H3.58a.511.511,0,0,1,0-1.023H5.114V3.58a.511.511,0,0,1,1.023,0V5.114H7.67a.511.511,0,1,1,0,1.023H6.136V7.67a.511.511,0,1,1-1.023,0Z" fill="#091625"/>
    </clipPath>
  </defs>
  <rect id="Rectangle_98" data-name="Rectangle 98" width="30" height="30" fill="none"/>
  <g id="Icône_Nouveau" data-name="Icône Nouveau" transform="translate(2.185 5.623)">
    <g id="Carte">
      <path id="Soustraction_15" data-name="Soustraction 15" d="M13.331,18.336a.866.866,0,0,1-.222-.03h0s0,0-.006,0h-.01a.745.745,0,0,1-.136-.057l-.012-.006L6.69,15.113,1.245,18.228a.823.823,0,0,1-.41.108A.838.838,0,0,1,.254,18.1.822.822,0,0,1,0,17.5V4.17a.838.838,0,0,1,.418-.726L6.239.12A.839.839,0,0,1,6.609,0h.129a.882.882,0,0,1,.3.086l.007,0,6.263,3.13L18.75.112A.832.832,0,0,1,20,.835V7.5h-.014a5.606,5.606,0,0,0-1.652.25V2.271L14.167,4.649V16.065l.787-.449a5.631,5.631,0,0,0,.955,1.372l-2.16,1.235h0l0,0a.008.008,0,0,0-.007,0l-.007,0h0l-.006,0a.007.007,0,0,0-.006,0h0l-.008,0A.84.84,0,0,1,13.331,18.336ZM7.5,2.185v11.47l5,2.5V4.685l-5-2.5Zm-1.666.086h0L1.667,4.654V16.065l4.166-2.381V2.271Z" transform="translate(0.001)" fill="#091625"/>
    </g>
    <g id="Groupe_44" data-name="Groupe 44" transform="translate(14.375 7.501)">
      <path id="Combined_Shape-3" data-name="Combined Shape" d="M2.045,4.6V3.069H.512a.512.512,0,0,1,0-1.024H2.045V.512a.512.512,0,0,1,1.024,0V2.045H4.6a.512.512,0,0,1,0,1.024H3.069V4.6a.512.512,0,0,1-1.024,0Z" transform="translate(3.07 3.068)" fill="#091625"/>
      <g id="Soustraction_14" data-name="Soustraction 14" fill="#091625">
        <path d="M 5.628902912139893 10.75293445587158 C 2.8008131980896 10.75293445587158 0.5000030994415283 8.452115058898926 0.5000030994415283 5.624024868011475 C 0.5000030994415283 2.798634767532349 2.8008131980896 0.5000048279762268 5.628902912139893 0.5000048279762268 C 8.454833030700684 0.5000048279762268 10.75390338897705 2.798634767532349 10.75390338897705 5.624024868011475 C 10.75390338897705 8.452115058898926 8.454833030700684 10.75293445587158 5.628902912139893 10.75293445587158 Z M 5.628902912139893 0.7500048279762268 C 2.940823078155518 0.7500048279762268 0.7539031505584717 2.936484813690186 0.7539031505584717 5.624024868011475 C 0.7539031505584717 8.314265251159668 2.940823078155518 10.50293445587158 5.628902912139893 10.50293445587158 C 8.316983222961426 10.50293445587158 10.50390338897705 8.314265251159668 10.50390338897705 5.624024868011475 C 10.50390338897705 2.936484813690186 8.316983222961426 0.7500048279762268 5.628902912139893 0.7500048279762268 Z" stroke="none"/>
        <path d="M 5.628902912139893 11.25293445587158 C 2.525393009185791 11.25293445587158 3.12499992105586e-06 8.727535247802734 3.12499992105586e-06 5.624024868011475 C 3.12499992105586e-06 2.522464752197266 2.525393009185791 4.843750048166839e-06 5.628902912139893 4.843750048166839e-06 C 8.730473518371582 4.843750048166839e-06 11.25390338897705 2.522464752197266 11.25390338897705 5.624024868011475 C 11.25390338897705 8.727535247802734 8.730473518371582 11.25293445587158 5.628902912139893 11.25293445587158 Z M 5.628902912139893 1.250004887580872 C 3.216793060302734 1.250004887580872 1.253903150558472 3.211914777755737 1.253903150558472 5.624024868011475 C 1.253903150558472 8.038084983825684 3.216793060302734 10.00293445587158 5.628902912139893 10.00293445587158 C 8.041012763977051 10.00293445587158 10.00390338897705 8.038084983825684 10.00390338897705 5.624024868011475 C 10.00390338897705 3.211914777755737 8.041012763977051 1.250004887580872 5.628902912139893 1.250004887580872 Z" stroke="none" fill="#091625"/>
      </g>
    </g>
  </g>
</svg>
