<svg id="icon-drag_n-drop" data-name="icon-drag&apos;n-drop" xmlns="http://www.w3.org/2000/svg" xmlns:xlink="http://www.w3.org/1999/xlink" width="30" height="30" viewBox="0 0 30 30">
  <defs>
    <clipPath id="clip-path">
      <path id="Combined_Shape" data-name="Combined Shape" d="M10,20H9.911l-.014,0H9.889l-.015,0H9.867l-.015,0H9.845l-.015,0H9.823l-.015,0-.008,0-.013,0-.01,0-.011,0-.012,0-.008,0-.015,0,0,0-.019-.006h0a.907.907,0,0,1-.352-.219L6.63,17.007a.909.909,0,0,1,1.286-1.286L9.091,16.9V10.909H3.1L4.28,12.085a.909.909,0,1,1-1.286,1.286L.285,10.661a.914.914,0,0,1-.158-.2h0l-.01-.018,0,0-.009-.017,0,0L.1,10.4l0,0-.008-.017v0l-.008-.018v0l-.008-.019h0l-.008-.02h0A.9.9,0,0,1,0,10.087H0l0-.02v0c0-.006,0-.011,0-.017v-.009s0-.009,0-.013S0,10.009,0,10v0H0c0-.008,0-.015,0-.023V9.97s0-.01,0-.015V9.911l0-.015V9.889l0-.017v0l0-.017V9.846l0-.016V9.824l0-.015,0-.008,0-.014,0-.009,0-.012,0-.011,0-.009,0-.014,0-.006L.047,9.71v0a.907.907,0,0,1,.218-.351L2.994,6.63A.909.909,0,0,1,4.28,7.916L3.1,9.091H9.091V3.1L7.916,4.28A.909.909,0,0,1,6.63,2.994L9.357.267A.907.907,0,0,1,9.708.048h0L9.728.042l.006,0,.014,0,.009,0,.011,0,.012,0,.009,0,.014,0,.008,0,.015,0H9.83l.016,0h.005l.017,0h0l.017,0H9.9l.015,0h.155l.02,0h0a.9.9,0,0,1,.234.054h0l.02.008h0l.019.008h0l.018.008h0L10.4.093l0,0L10.421.1l0,0,.017.009,0,0,.018.01h0a.914.914,0,0,1,.2.158l2.71,2.709A.909.909,0,1,1,12.085,4.28L10.909,3.1V9.091H16.9L15.721,7.916A.909.909,0,0,1,17.007,6.63l2.727,2.727a.907.907,0,0,1,.219.352h0l.006.019,0,0,0,.015,0,.008,0,.012,0,.011,0,.01,0,.013,0,.008,0,.015V9.83l0,.015v.006l0,.015v.007l0,.015V9.9l0,.014v.044c0,.005,0,.01,0,.016v.007c0,.008,0,.015,0,.023h0v0c0,.007,0,.014,0,.02s0,.008,0,.012v.01c0,.005,0,.011,0,.016v.005l0,.019v0l0,.021h0a.9.9,0,0,1-.045.192h0l-.007.021h0l-.008.02v0l-.008.019v0l-.008.017,0,0-.008.016,0,0-.008.015,0,0-.008.016,0,0-.009.016,0,0-.011.018h0a.914.914,0,0,1-.147.179l-2.709,2.71a.909.909,0,1,1-1.286-1.286L16.9,10.909H10.909V16.9l1.176-1.176a.909.909,0,1,1,1.286,1.286l-2.71,2.709a.914.914,0,0,1-.179.147h0l-.018.011,0,0-.016.009,0,0-.016.008,0,0-.015.008,0,0-.016.008,0,0-.017.008h0l-.019.008h0l-.02.008h0l-.021.007h0a.9.9,0,0,1-.192.045h0l-.021,0h0l-.019,0H10Z" fill="#091625"/>
    </clipPath>
  </defs>
  <rect id="Rectangle_251" data-name="Rectangle 251" width="30" height="30" fill="none"/>
  <g id="Groupe_10" data-name="Groupe 10" transform="translate(5 5)">
    <path id="Combined_Shape-2" data-name="Combined Shape" d="M10,20H9.911l-.014,0H9.889l-.015,0H9.867l-.015,0H9.845l-.015,0H9.823l-.015,0-.008,0-.013,0-.01,0-.011,0-.012,0-.008,0-.015,0,0,0-.019-.006h0a.907.907,0,0,1-.352-.219L6.63,17.007a.909.909,0,0,1,1.286-1.286L9.091,16.9V10.909H3.1L4.28,12.085a.909.909,0,1,1-1.286,1.286L.285,10.661a.914.914,0,0,1-.158-.2h0l-.01-.018,0,0-.009-.017,0,0L.1,10.4l0,0-.008-.017v0l-.008-.018v0l-.008-.019h0l-.008-.02h0A.9.9,0,0,1,0,10.087H0l0-.02v0c0-.006,0-.011,0-.017v-.009s0-.009,0-.013S0,10.009,0,10v0H0c0-.008,0-.015,0-.023V9.97s0-.01,0-.015V9.911l0-.015V9.889l0-.017v0l0-.017V9.846l0-.016V9.824l0-.015,0-.008,0-.014,0-.009,0-.012,0-.011,0-.009,0-.014,0-.006L.047,9.71v0a.907.907,0,0,1,.218-.351L2.994,6.63A.909.909,0,0,1,4.28,7.916L3.1,9.091H9.091V3.1L7.916,4.28A.909.909,0,0,1,6.63,2.994L9.357.267A.907.907,0,0,1,9.708.048h0L9.728.042l.006,0,.014,0,.009,0,.011,0,.012,0,.009,0,.014,0,.008,0,.015,0H9.83l.016,0h.005l.017,0h0l.017,0H9.9l.015,0h.155l.02,0h0a.9.9,0,0,1,.234.054h0l.02.008h0l.019.008h0l.018.008h0L10.4.093l0,0L10.421.1l0,0,.017.009,0,0,.018.01h0a.914.914,0,0,1,.2.158l2.71,2.709A.909.909,0,1,1,12.085,4.28L10.909,3.1V9.091H16.9L15.721,7.916A.909.909,0,0,1,17.007,6.63l2.727,2.727a.907.907,0,0,1,.219.352h0l.006.019,0,0,0,.015,0,.008,0,.012,0,.011,0,.01,0,.013,0,.008,0,.015V9.83l0,.015v.006l0,.015v.007l0,.015V9.9l0,.014v.044c0,.005,0,.01,0,.016v.007c0,.008,0,.015,0,.023h0v0c0,.007,0,.014,0,.02s0,.008,0,.012v.01c0,.005,0,.011,0,.016v.005l0,.019v0l0,.021h0a.9.9,0,0,1-.045.192h0l-.007.021h0l-.008.02v0l-.008.019v0l-.008.017,0,0-.008.016,0,0-.008.015,0,0-.008.016,0,0-.009.016,0,0-.011.018h0a.914.914,0,0,1-.147.179l-2.709,2.71a.909.909,0,1,1-1.286-1.286L16.9,10.909H10.909V16.9l1.176-1.176a.909.909,0,1,1,1.286,1.286l-2.71,2.709a.914.914,0,0,1-.179.147h0l-.018.011,0,0-.016.009,0,0-.016.008,0,0-.015.008,0,0-.016.008,0,0-.017.008h0l-.019.008h0l-.02.008h0l-.021.007h0a.9.9,0,0,1-.192.045h0l-.021,0h0l-.019,0H10Z" fill="#091625"/>
  </g>
</svg>
