<svg id="icon-edit" xmlns="http://www.w3.org/2000/svg" width="30" height="30" viewBox="0 0 30 30">
  <rect id="Rectangle_286" data-name="Rectangle 286" width="30" height="30" fill="none"/>
  <g id="Ligne" transform="translate(3.75 4.456)">
    <path id="Tracé_31" data-name="Tracé 31" d="M15463.625,10468.25a2.625,2.625,0,1,1,2.625-2.624A2.626,2.626,0,0,1,15463.625,10468.25Zm0-3.25a.626.626,0,1,0,.627.626A.626.626,0,0,0,15463.625,10465Z" transform="translate(-15443.751 -10463.001)" fill="#091625"/>
    <path id="Tracé_51" data-name="Tracé 51" d="M.15,2.463-.1.478,2.38.166,2.63,2.15Zm3.1-.39L3,.088l2.48-.312.25,1.984Zm3.1-.39L6.1-.3l2.48-.312.25,1.984Zm3.1-.39L9.2-.693l1.5-.188.25,1.984Z" transform="translate(8.1 2.742)" fill="#091625"/>
    <g id="Ligne-2" data-name="Ligne" transform="translate(0 2.064)">
      <path id="Tracé_29" data-name="Tracé 29" d="M15463.625,10468.25a2.625,2.625,0,1,1,2.625-2.624A2.626,2.626,0,0,1,15463.625,10468.25Zm0-3.25a.626.626,0,1,0,.627.626A.626.626,0,0,0,15463.625,10465Z" transform="translate(-15461.002 -10449.226)" fill="#091625"/>
      <path id="Tracé_28" data-name="Tracé 28" d="M15463.625,10468.25a2.625,2.625,0,1,1,2.625-2.624A2.626,2.626,0,0,1,15463.625,10468.25Zm0-3.25a.626.626,0,1,0,.627.626A.626.626,0,0,0,15463.625,10465Z" transform="translate(-15456.594 -10463.001)" fill="#091625"/>
      <path id="Tracé_30" data-name="Tracé 30" d="M15463.625,10468.25a2.625,2.625,0,1,1,2.625-2.624A2.626,2.626,0,0,1,15463.625,10468.25Zm0-3.25a.626.626,0,1,0,.627.626A.626.626,0,0,0,15463.625,10465Z" transform="translate(-15447.634 -10451.599)" fill="#091625"/>
      <path id="Tracé_24" data-name="Tracé 24" d="M-12340.652-9658.875l-1.911-.588,3.662-11.873,1.911.588Z" transform="translate(12344.647 9674.521)" fill="#091625"/>
      <path id="Tracé_25" data-name="Tracé 25" d="M-12331.813-9661.075l-7.476-9.528,1.572-1.235,7.476,9.527Z" transform="translate(12346.209 9674.701)" fill="#091625"/>
    </g>
    <path id="Ligne_28" data-name="Ligne 28" d="M1.164,10.291l-1.94-.485.226-.9,1.94.485ZM1.542,8.78-.4,8.295.208,5.869l1.94.485ZM2.3,5.748.36,5.263.966,2.838l1.94.485Zm.758-3.032-1.94-.485L1.724-.194l1.94.485Z" transform="translate(16.681 4.164)" fill="#091625"/>
  </g>
</svg>
