<svg id="icon-speaker" xmlns="http://www.w3.org/2000/svg" width="30" height="30" viewBox="0 0 30 30">
  <rect id="Rectangle_558" data-name="Rectangle 558" width="30" height="30" fill="none"/>
  <g id="Speaker" transform="translate(3.135 3.777)">
    <path id="Rectangle_559" data-name="Rectangle 559" d="M2.5,2a.5.5,0,0,0-.5.5V6.25a.5.5,0,0,0,.5.5H4.25V2H2.5m0-2H6.25V8.75H2.5A2.5,2.5,0,0,1,0,6.25V2.5A2.5,2.5,0,0,1,2.5,0Z" transform="translate(0 6.828)" fill="#091625"/>
    <path id="Union_5" data-name="Union 5" d="M8.474,21.647a1,1,0,0,1-.628-.221L-.427,14.758A1,1,0,0,1-.8,13.98V6.867a1,1,0,0,1,.373-.779L7.847-.578A1,1,0,0,1,9.474.2V20.647a1,1,0,0,1-1,1ZM1.2,13.5l6.274,5.056V2.29L1.2,7.346Z" transform="translate(5.05 0.799)" fill="#091625"/>
    <path id="Tracé_81" data-name="Tracé 81" d="M-12697.539-8523.761a1,1,0,0,1-.47-.117,1,1,0,0,1-.412-1.354,9.7,9.7,0,0,0-.219-10.22,1,1,0,0,1,.182-1.4,1,1,0,0,1,1.4.182,10.538,10.538,0,0,1,1.621,3.6,12.093,12.093,0,0,1-1.221,8.779A1,1,0,0,1-12697.539-8523.761Z" transform="translate(12716.338 8541.613)" fill="#091625"/>
    <path id="Tracé_82" data-name="Tracé 82" d="M-12697.448-8520.472a1.009,1.009,0,0,1-.471-.117,1,1,0,0,1-.411-1.354c4.083-7.653-.267-13.45-.31-13.508a1,1,0,0,1,.182-1.4,1,1,0,0,1,1.4.182,13.274,13.274,0,0,1,2.041,4.545,15.33,15.33,0,0,1-1.551,11.127A1,1,0,0,1-12697.448-8520.472Z" transform="translate(12719.307 8539.575)" fill="#091625"/>
    <path id="Tracé_82-2" data-name="Tracé 82" d="M2763.989,761.107a1,1,0,0,1-.91-1.415,6.6,6.6,0,0,0,.577-4.38,3.68,3.68,0,0,0-.634-1.359,1,1,0,1,1,1.485-1.339c.108.12,2.628,3,.392,7.908A1,1,0,0,1,2763.989,761.107Z" transform="translate(-2748.019 -745.456)" fill="#091625"/>
  </g>
</svg>
