<svg id="icon-mesure" xmlns="http://www.w3.org/2000/svg" width="30" height="30" viewBox="0 0 30 30">
  <rect id="Rectangle_246" data-name="Rectangle 246" width="30" height="30" fill="none"/>
  <path id="Combined_Shape" data-name="Combined Shape" d="M15.08,21.494.737,7.151a2.533,2.533,0,0,1,0-3.572L3.577.738a2.53,2.53,0,0,1,3.572,0L21.493,15.082a2.535,2.535,0,0,1,0,3.572l-2.841,2.841a2.53,2.53,0,0,1-3.572,0ZM4.787,1.947,1.946,4.788a.848.848,0,0,0,0,1.181L16.262,20.285a.872.872,0,0,0,1.181,0l2.869-2.812-.028-.028a.846.846,0,0,0,0-1.209L16.908,12.86l-1.434,1.434-1.181-1.181,1.434-1.434-1.8-1.772-1.462,1.406-1.181-1.181L12.718,8.7l-1.8-1.8L9.483,8.332,8.3,7.151,9.737,5.716l-1.8-1.8L6.5,5.351,5.321,4.169,6.755,2.735l-.787-.788a.842.842,0,0,0-1.181,0ZM15.432,17.42l1.988-1.989,1.194,1.194-1.989,1.989Z" transform="translate(3.751 3.75)" fill="#091625"/>
</svg>
