<svg id="icon-geolocation" xmlns="http://www.w3.org/2000/svg" width="30" height="30" viewBox="0 0 30 30">
  <path id="Combined_Shape" data-name="Combined Shape" d="M10.385,21.635v-.9a9.536,9.536,0,0,1-8.616-8.616h-.9a.865.865,0,0,1,0-1.73h.9a9.536,9.536,0,0,1,8.616-8.616v-.9a.865.865,0,0,1,1.73,0v.9a9.536,9.536,0,0,1,8.616,8.616h.9a.865.865,0,1,1,0,1.73h-.9a9.536,9.536,0,0,1-8.616,8.616v.9a.865.865,0,1,1-1.73,0Zm0-2.644V16.442a.865.865,0,1,1,1.73,0v2.549a7.805,7.805,0,0,0,6.875-6.875H16.442a.865.865,0,1,1,0-1.73h2.549a7.805,7.805,0,0,0-6.875-6.875V6.058a.865.865,0,1,1-1.73,0V3.509a7.805,7.805,0,0,0-6.875,6.875H6.058a.865.865,0,1,1,0,1.73H3.509A7.805,7.805,0,0,0,10.385,18.991Z" transform="translate(3.75 3.75)" fill="#091625"/>
  <rect id="Rectangle_242" data-name="Rectangle 242" width="30" height="30" fill="none"/>
</svg>
