<svg id="icon-polygon" xmlns="http://www.w3.org/2000/svg" width="30" height="30" viewBox="0 0 30 30">
  <rect id="Rectangle_120" data-name="Rectangle 120" width="30" height="30" fill="none"/>
  <g id="Polygone" transform="translate(3.751 5.001)">
    <path id="Tracé_39" data-name="Tracé 39" d="M15463.625,10468.25a2.625,2.625,0,1,1,2.625-2.624A2.626,2.626,0,0,1,15463.625,10468.25Zm0-3.25a.626.626,0,1,0,.627.626A.626.626,0,0,0,15463.625,10465Z" transform="translate(-15461.002 -10449.998)" fill="#091625"/>
    <path id="Tracé_37" data-name="Tracé 37" d="M15463.625,10468.25a2.625,2.625,0,1,1,2.625-2.624A2.626,2.626,0,0,1,15463.625,10468.25Zm0-3.25a.626.626,0,1,0,.627.626A.626.626,0,0,0,15463.625,10465Z" transform="translate(-15445.347 -10463)" fill="#091625"/>
    <path id="Tracé_38" data-name="Tracé 38" d="M15463.625,10468.25a2.625,2.625,0,1,1,2.625-2.624A2.626,2.626,0,0,1,15463.625,10468.25Zm0-3.25a.626.626,0,1,0,.627.626A.626.626,0,0,0,15463.625,10465Z" transform="translate(-15443.754 -10448.25)" fill="#091625"/>
    <path id="Tracé_36" data-name="Tracé 36" d="M15463.625,10468.25a2.625,2.625,0,1,1,2.625-2.624A2.626,2.626,0,0,1,15463.625,10468.25Zm0-3.25a.626.626,0,1,0,.627.626A.626.626,0,0,0,15463.625,10465Z" transform="translate(-15455.754 -10463.001)" fill="#091625"/>
    <path id="Tracé_32" data-name="Tracé 32" d="M-11641.436-9938.17l-1.875-.7,4.152-11.152,1.875.7Z" transform="translate(11645.369 9953.27)" fill="#091625"/>
    <path id="Tracé_33" data-name="Tracé 33" d="M-11642.111-9937.418l-1.243-12.2,1.99-.2,1.242,12.2Z" transform="translate(11660.836 9953.799)" fill="#091625"/>
    <path id="Tracé_34" data-name="Tracé 34" d="M-11627.482-9946.8l-15.171-1.748.229-1.987,15.171,1.748Z" transform="translate(11646.208 9965.17)" fill="#091625"/>
    <path id="Tracé_35" data-name="Tracé 35" d="M0,.319,7.234,0" transform="matrix(0.998, 0.07, -0.07, 0.998, 9.083, 2.295)" fill="#091625"/>
    <path id="Tracé_35_-_Contour" data-name="Tracé 35 - Contour" d="M.088,2.317,0,.319,7.234,0l.088,2Z" transform="matrix(0.998, 0.07, -0.07, 0.998, 9.109, 1.295)" fill="#091625"/>
  </g>
</svg>
