<svg id="icon-eye" xmlns="http://www.w3.org/2000/svg" xmlns:xlink="http://www.w3.org/1999/xlink" width="30" height="30" viewBox="0 0 30 30">
  <defs>
    <clipPath id="clip-path">
      <path id="Combined_Shape" data-name="Combined Shape" d="M13.124,19.688c-3.49,0-6.749-1.588-9.685-4.72A22.541,22.541,0,0,1,.977,11.8a16.1,16.1,0,0,1-.862-1.471,1.1,1.1,0,0,1,0-.979A16.42,16.42,0,0,1,.977,7.883,22.541,22.541,0,0,1,3.439,4.72C6.376,1.588,9.634,0,13.124,0s6.747,1.588,9.684,4.72a22.487,22.487,0,0,1,2.463,3.162,16.8,16.8,0,0,1,.863,1.471,1.1,1.1,0,0,1,0,.979,16.8,16.8,0,0,1-.863,1.471,22.487,22.487,0,0,1-2.463,3.162C19.872,18.1,16.614,19.688,13.124,19.688Zm0-17.5c-2.861,0-5.582,1.356-8.089,4.03A20.234,20.234,0,0,0,2.815,9.07c-.17.263-.329.523-.475.774.147.254.307.514.475.774a20.234,20.234,0,0,0,2.221,2.853c2.506,2.674,5.228,4.03,8.089,4.03s5.581-1.356,8.089-4.03a20.155,20.155,0,0,0,2.22-2.853c.175-.27.335-.531.475-.774-.136-.236-.3-.5-.475-.774a20.155,20.155,0,0,0-2.22-2.853C18.706,3.543,15.984,2.187,13.124,2.187Zm0,12.032A4.375,4.375,0,1,1,17.5,9.844,4.38,4.38,0,0,1,13.124,14.219Zm0-6.562a2.187,2.187,0,1,0,2.187,2.187A2.19,2.19,0,0,0,13.124,7.657Z" transform="translate(0 0)" fill="#091625"/>
    </clipPath>
  </defs>
  <rect id="Rectangle_154" data-name="Rectangle 154" width="30" height="30" fill="none"/>
  <g id="Groupe_3" data-name="Groupe 3" transform="translate(2.501 5)">
    <path id="Combined_Shape-2" data-name="Combined Shape" d="M13.124,19.688c-3.49,0-6.749-1.588-9.685-4.72A22.541,22.541,0,0,1,.977,11.8a16.1,16.1,0,0,1-.862-1.471,1.1,1.1,0,0,1,0-.979A16.42,16.42,0,0,1,.977,7.883,22.541,22.541,0,0,1,3.439,4.72C6.376,1.588,9.634,0,13.124,0s6.747,1.588,9.684,4.72a22.487,22.487,0,0,1,2.463,3.162,16.8,16.8,0,0,1,.863,1.471,1.1,1.1,0,0,1,0,.979,16.8,16.8,0,0,1-.863,1.471,22.487,22.487,0,0,1-2.463,3.162C19.872,18.1,16.614,19.688,13.124,19.688Zm0-17.5c-2.861,0-5.582,1.356-8.089,4.03A20.234,20.234,0,0,0,2.815,9.07c-.17.263-.329.523-.475.774.147.254.307.514.475.774a20.234,20.234,0,0,0,2.221,2.853c2.506,2.674,5.228,4.03,8.089,4.03s5.581-1.356,8.089-4.03a20.155,20.155,0,0,0,2.22-2.853c.175-.27.335-.531.475-.774-.136-.236-.3-.5-.475-.774a20.155,20.155,0,0,0-2.22-2.853C18.706,3.543,15.984,2.187,13.124,2.187Zm0,12.032A4.375,4.375,0,1,1,17.5,9.844,4.38,4.38,0,0,1,13.124,14.219Zm0-6.562a2.187,2.187,0,1,0,2.187,2.187A2.19,2.19,0,0,0,13.124,7.657Z" transform="translate(0 0)" fill="#091625"/>
  </g>
</svg>
