<svg id="icon-info" xmlns="http://www.w3.org/2000/svg" xmlns:xlink="http://www.w3.org/1999/xlink" width="30" height="30" viewBox="0 0 30 30">
  <defs>
    <clipPath id="clip-path">
      <path id="Combined_Shape" data-name="Combined Shape" d="M0,11.25A11.25,11.25,0,1,1,11.25,22.5,11.263,11.263,0,0,1,0,11.25Zm2.045,0a9.2,9.2,0,1,0,9.2-9.2A9.215,9.215,0,0,0,2.045,11.25Zm8.007,4.806c0-.813.365-1.219,1.091-1.241a1.01,1.01,0,0,1,1.132,1.113A1,1,0,0,1,11.2,17.045,1.023,1.023,0,0,1,10.052,16.056ZM10.4,13.5a.916.916,0,0,1-.129-.452A3.032,3.032,0,0,1,11.517,10.5a9.2,9.2,0,0,0,.988-.872,1.094,1.094,0,0,0,.255-.613.944.944,0,0,0-.987-1.056A1.9,1.9,0,0,0,9.9,8.792a.915.915,0,0,1-.949.436.837.837,0,0,1-.667-1.254A2.8,2.8,0,0,1,9.647,6.621a4.744,4.744,0,0,1,1.977-.484,9.739,9.739,0,0,1,1.153.19A2.632,2.632,0,0,1,14.718,8.82a2.269,2.269,0,0,1-.918,2.072h0c-.309.241-.634.459-.947.694a1.539,1.539,0,0,0-.693,1.375.872.872,0,0,1-.629.872A.965.965,0,0,1,10.4,13.5Z" fill="#091625"/>
    </clipPath>
  </defs>
  <rect id="Rectangle_187" data-name="Rectangle 187" width="30" height="30" fill="none"/>
  <path id="Combined_Shape-2" data-name="Combined Shape" d="M0,11.25A11.25,11.25,0,1,1,11.25,22.5,11.263,11.263,0,0,1,0,11.25Zm2.045,0a9.2,9.2,0,1,0,9.2-9.2A9.215,9.215,0,0,0,2.045,11.25Zm8.005,4.637V10.612a1.113,1.113,0,0,1,2.225,0v5.275a1.113,1.113,0,1,1-2.225,0Zm0-8.508c0-.814.365-1.219,1.091-1.242A1.01,1.01,0,0,1,12.275,7.25,1,1,0,0,1,11.2,8.367,1.022,1.022,0,0,1,10.052,7.379Z" transform="translate(3.75 3.75)" fill="#091625"/>
</svg>
