<svg id="icon-reset" xmlns="http://www.w3.org/2000/svg" xmlns:xlink="http://www.w3.org/1999/xlink" width="30" height="30" viewBox="0 0 30 30">
  <defs>
    <clipPath id="clip-path">
      <path id="Combined_Shape" data-name="Combined Shape" d="M7.641,18.913a8.7,8.7,0,0,1-6.279-5.58A.87.87,0,0,1,3,12.753a6.956,6.956,0,0,0,11.5,2.579l2.434-2.288H13.913a.87.87,0,1,1,0-1.739h5.218a.871.871,0,0,1,.807.544l0,.01a.885.885,0,0,1,.058.317v5.216a.87.87,0,1,1-1.739,0V14.184l-2.55,2.4a8.694,8.694,0,0,1-8.07,2.333ZM.87,7.824A.87.87,0,0,1,.063,7.28l0-.01A.88.88,0,0,1,0,6.952V1.737a.87.87,0,1,1,1.739,0V4.944l2.55-2.4A8.7,8.7,0,0,1,18.637,5.795.869.869,0,1,1,17,6.375,6.956,6.956,0,0,0,5.5,3.8L3.065,6.085H6.087a.87.87,0,0,1,0,1.739Z" transform="translate(0)" fill="#091625"/>
    </clipPath>
  </defs>
  <rect id="Rectangle_154" data-name="Rectangle 154" width="30" height="30" fill="none"/>
  <g id="Groupe_4" data-name="Groupe 4" transform="translate(5 5)">
    <path id="Combined_Shape-2" data-name="Combined Shape" d="M7.641,18.913a8.7,8.7,0,0,1-6.279-5.58A.87.87,0,0,1,3,12.753a6.956,6.956,0,0,0,11.5,2.579l2.434-2.288H13.913a.87.87,0,1,1,0-1.739h5.218a.871.871,0,0,1,.807.544l0,.01a.885.885,0,0,1,.058.317v5.216a.87.87,0,1,1-1.739,0V14.184l-2.55,2.4a8.694,8.694,0,0,1-8.07,2.333ZM.87,7.824A.87.87,0,0,1,.063,7.28l0-.01A.88.88,0,0,1,0,6.952V1.737a.87.87,0,1,1,1.739,0V4.944l2.55-2.4A8.7,8.7,0,0,1,18.637,5.795.869.869,0,1,1,17,6.375,6.956,6.956,0,0,0,5.5,3.8L3.065,6.085H6.087a.87.87,0,0,1,0,1.739Z" transform="translate(0)" fill="#091625"/>
  </g>
</svg>
