<svg id="icon-print" xmlns="http://www.w3.org/2000/svg" xmlns:xlink="http://www.w3.org/1999/xlink" width="30" height="30" viewBox="0 0 30 30">
  <defs>
    <clipPath id="clip-path">
      <path id="Combined_Shape" data-name="Combined Shape" d="M17.387,22.5H5.113A1.024,1.024,0,0,1,4.09,21.477V18.41H3.068A3.072,3.072,0,0,1,0,15.34V10.227A3.071,3.071,0,0,1,3.068,7.16H4.09V1.023A1.024,1.024,0,0,1,5.113,0H17.387A1.024,1.024,0,0,1,18.41,1.023V7.16h1.023A3.071,3.071,0,0,1,22.5,10.227V15.34a3.072,3.072,0,0,1-3.068,3.069H18.41v3.068A1.024,1.024,0,0,1,17.387,22.5ZM6.137,14.318v6.137H16.363V14.318ZM5.113,12.273H17.387A1.024,1.024,0,0,1,18.41,13.3v3.068h1.023a1.024,1.024,0,0,0,1.023-1.023V10.227A1.024,1.024,0,0,0,19.432,9.2H3.068a1.024,1.024,0,0,0-1.023,1.023V15.34a1.024,1.024,0,0,0,1.023,1.023H4.09V13.3A1.024,1.024,0,0,1,5.113,12.273ZM6.137,2.045V7.16H16.363V2.045Z" fill="#091625"/>
    </clipPath>
  </defs>
  <rect id="Rectangle_248" data-name="Rectangle 248" width="30" height="30" fill="none"/>
  <g id="Groupe_7" data-name="Groupe 7" transform="translate(3.75 3.75)">
    <path id="Combined_Shape-2" data-name="Combined Shape" d="M17.387,22.5H5.113A1.024,1.024,0,0,1,4.09,21.477V18.41H3.068A3.072,3.072,0,0,1,0,15.34V10.227A3.071,3.071,0,0,1,3.068,7.16H4.09V1.023A1.024,1.024,0,0,1,5.113,0H17.387A1.024,1.024,0,0,1,18.41,1.023V7.16h1.023A3.071,3.071,0,0,1,22.5,10.227V15.34a3.072,3.072,0,0,1-3.068,3.069H18.41v3.068A1.024,1.024,0,0,1,17.387,22.5ZM6.137,14.318v6.137H16.363V14.318ZM5.113,12.273H17.387A1.024,1.024,0,0,1,18.41,13.3v3.068h1.023a1.024,1.024,0,0,0,1.023-1.023V10.227A1.024,1.024,0,0,0,19.432,9.2H3.068a1.024,1.024,0,0,0-1.023,1.023V15.34a1.024,1.024,0,0,0,1.023,1.023H4.09V13.3A1.024,1.024,0,0,1,5.113,12.273ZM6.137,2.045V7.16H16.363V2.045Z" fill="#091625"/>
  </g>
</svg>
