<svg id="icon-pro" xmlns="http://www.w3.org/2000/svg" width="30" height="30" viewBox="0 0 30 30">
  <rect id="Rectangle_264" data-name="Rectangle 264" width="30" height="30" fill="none"/>
  <path id="Combined_Shape" data-name="Combined Shape" d="M0,18.8V14.733c0-4.98,1.64-4.018,5.125-4.815l2.811,4.76.5-3.791c-.689-.5-.468-.442-.192-1.3h.991c.3.858.5.8-.165,1.3l.5,3.791,2.811-4.76c2.938.8,5.127-.165,5.127,4.815V18.8ZM4.922,4.511C4.922,2.018,6.635,0,8.75,0s3.828,2.018,3.828,4.511S10.865,9.023,8.75,9.023,4.922,7,4.922,4.511Z" transform="translate(6.25 5)" fill="#091625"/>
</svg>
