<svg id="icon-compass" xmlns="http://www.w3.org/2000/svg" width="30" height="30" viewBox="0 0 30 30">
  <path id="Combined_Shape" data-name="Combined Shape" d="M10,20A10,10,0,1,1,20,10,10.011,10.011,0,0,1,10,20ZM10,1.818A8.182,8.182,0,1,0,18.182,10,8.191,8.191,0,0,0,10,1.818ZM6.141,14.766a.912.912,0,0,1-.737-.383.894.894,0,0,1-.122-.815L7.21,7.785a.918.918,0,0,1,.575-.575l5.782-1.927a.92.92,0,0,1,.292-.048.911.911,0,0,1,.734.381.9.9,0,0,1,.123.817L12.79,12.215a.918.918,0,0,1-.575.575L6.433,14.717A.931.931,0,0,1,6.141,14.766Zm6.275-7.183h0L8.792,8.792,7.582,12.417l3.626-1.208,1.208-3.626Z" transform="translate(5 5)" fill="#091625"/>
  <rect id="Rectangle_235" data-name="Rectangle 235" width="30" height="30" fill="none"/>
</svg>
