<svg id="icon-delete" xmlns="http://www.w3.org/2000/svg" xmlns:xlink="http://www.w3.org/1999/xlink" width="30" height="30" viewBox="0 0 30 30">
  <defs>
    <clipPath id="clip-path">
      <path id="Combined_Shape" data-name="Combined Shape" d="M5,22a3,3,0,0,1-3-3V6H1A1,1,0,1,1,1,4H5V3A3,3,0,0,1,8,0h4a3,3,0,0,1,3,3V4h4a1,1,0,1,1,0,2H18V19a3,3,0,0,1-3,3ZM4,19a1,1,0,0,0,1,1H15a1,1,0,0,0,1-1V6H4ZM13,4V3a1,1,0,0,0-1-1H8A1,1,0,0,0,7,3V4ZM11,16V10a1,1,0,1,1,2,0v6a1,1,0,1,1-2,0ZM7,16V10a1,1,0,0,1,2,0v6a1,1,0,1,1-2,0Z" fill="#091625"/>
    </clipPath>
  </defs>
  <rect id="Rectangle_154" data-name="Rectangle 154" width="30" height="30" fill="none"/>
  <g id="Groupe_24" data-name="Groupe 24" transform="translate(5 3.75)">
    <path id="Combined_Shape-2" data-name="Combined Shape" d="M5,22a3,3,0,0,1-3-3V6H1A1,1,0,1,1,1,4H5V3A3,3,0,0,1,8,0h4a3,3,0,0,1,3,3V4h4a1,1,0,1,1,0,2H18V19a3,3,0,0,1-3,3ZM4,19a1,1,0,0,0,1,1H15a1,1,0,0,0,1-1V6H4ZM13,4V3a1,1,0,0,0-1-1H8A1,1,0,0,0,7,3V4ZM11,16V10a1,1,0,1,1,2,0v6a1,1,0,1,1-2,0ZM7,16V10a1,1,0,0,1,2,0v6a1,1,0,1,1-2,0Z" fill="#091625"/>
  </g>
</svg>
