<svg id="icon-share2" xmlns="http://www.w3.org/2000/svg" xmlns:xlink="http://www.w3.org/1999/xlink" width="30" height="30" viewBox="0 0 30 30">
  <defs>
    <clipPath id="clip-path">
      <path id="Combined_Shape" data-name="Combined Shape" d="M2.917,19.444A2.917,2.917,0,0,1,0,16.527V9.722a.972.972,0,1,1,1.944,0v6.805a.973.973,0,0,0,.973.973H14.583a.972.972,0,0,0,.972-.973V9.722a.973.973,0,0,1,1.945,0v6.805a2.917,2.917,0,0,1-2.917,2.917Zm4.861-6.805V3.319l-2.23,2.23A.972.972,0,0,1,4.174,4.174L8.057.291A.976.976,0,0,1,8.156.2h0L8.175.188h0L8.194.175l0,0L8.214.161l0,0L8.235.148h0L8.255.135h0l.02-.012h0a.973.973,0,0,1,.946,0h0l.018.01,0,0,.014.008L9.269.15l.01.006.012.008.006,0,.014.01,0,0,.017.012h0a.983.983,0,0,1,.106.091l3.889,3.889a.972.972,0,1,1-1.376,1.375L9.722,3.319v9.32a.972.972,0,0,1-1.944,0Z" fill="#091625"/>
    </clipPath>
  </defs>
  <rect id="Rectangle_255" data-name="Rectangle 255" width="30" height="30" fill="none"/>
  <g id="Groupe_10" data-name="Groupe 10" transform="translate(6.25 5)">
    <path id="Combined_Shape-2" data-name="Combined Shape" d="M2.917,19.444A2.917,2.917,0,0,1,0,16.527V9.722a.972.972,0,1,1,1.944,0v6.805a.973.973,0,0,0,.973.973H14.583a.972.972,0,0,0,.972-.973V9.722a.973.973,0,0,1,1.945,0v6.805a2.917,2.917,0,0,1-2.917,2.917Zm4.861-6.805V3.319l-2.23,2.23A.972.972,0,0,1,4.174,4.174L8.057.291A.976.976,0,0,1,8.156.2h0L8.175.188h0L8.194.175l0,0L8.214.161l0,0L8.235.148h0L8.255.135h0l.02-.012h0a.973.973,0,0,1,.946,0h0l.018.01,0,0,.014.008L9.269.15l.01.006.012.008.006,0,.014.01,0,0,.017.012h0a.983.983,0,0,1,.106.091l3.889,3.889a.972.972,0,1,1-1.376,1.375L9.722,3.319v9.32a.972.972,0,0,1-1.944,0Z" fill="#091625"/>
  </g>
</svg>
