<svg id="icon-database" xmlns="http://www.w3.org/2000/svg" width="30" height="30" viewBox="0 0 30 30">
  <rect id="Rectangle_134" data-name="Rectangle 134" width="30" height="30" fill="none"/>
  <g id="Database" transform="translate(6.25 3.75)">
    <path id="Ellipse_146" data-name="Ellipse 146" d="M8.75,2a15.129,15.129,0,0,0-4.927.752,4.367,4.367,0,0,0-1.766,1,4.367,4.367,0,0,0,1.766,1A15.129,15.129,0,0,0,8.75,5.5a15.129,15.129,0,0,0,4.927-.752,4.367,4.367,0,0,0,1.766-1,4.367,4.367,0,0,0-1.766-1A15.129,15.129,0,0,0,8.75,2m0-2c4.832,0,8.75,1.679,8.75,3.75S13.582,7.5,8.75,7.5,0,5.821,0,3.75,3.918,0,8.75,0Z" fill="#091625"/>
    <path id="Tracé_82" data-name="Tracé 82" d="M-12114.27-9579.164a16.767,16.767,0,0,1-8.725-2.429l1.025-1.716a14.948,14.948,0,0,0,9.793,2.008,15.164,15.164,0,0,0,5.605-1.973l1.076,1.685a17.1,17.1,0,0,1-6.432,2.273A18.41,18.41,0,0,1-12114.27-9579.164Z" transform="translate(12123.002 9596.673)" fill="#091625"/>
    <path id="Tracé_84" data-name="Tracé 84" d="M-12114.131-9564.543a23.819,23.819,0,0,1-8.256-1.807,1,1,0,0,1-.6-.918v-15.711h2v15.031a21.323,21.323,0,0,0,6.859,1.406,19.317,19.317,0,0,0,6.6-1.393v-15.021h2v15.688a1,1,0,0,1-.58.908A21.621,21.621,0,0,1-12114.131-9564.543Z" transform="translate(12123.002 9586.756)" fill="#091625"/>
    <path id="Tracé_83" data-name="Tracé 83" d="M-12114.27-9579.164a16.767,16.767,0,0,1-8.725-2.429l1.025-1.716a14.948,14.948,0,0,0,9.793,2.008,15.164,15.164,0,0,0,5.605-1.973l1.076,1.685a17.1,17.1,0,0,1-6.432,2.273A18.41,18.41,0,0,1-12114.27-9579.164Z" transform="translate(12123.002 9591.673)" fill="#091625"/>
  </g>
</svg>
