<svg id="icon-heart-full" xmlns="http://www.w3.org/2000/svg" xmlns:xlink="http://www.w3.org/1999/xlink" width="30" height="30" viewBox="0 0 30 30">
  <defs>
    <clipPath id="clip-path">
      <path id="Shape" d="M10.89,1.757a6,6,0,1,1,8.482,8.482l-8.155,8.155a.923.923,0,0,1-1.3,0L1.757,10.239a6,6,0,0,1,8.482-8.482l.326.326Z" fill="#091625"/>
    </clipPath>
  </defs>
  <rect id="Rectangle_150" data-name="Rectangle 150" width="30" height="30" fill="none"/>
  <g id="Groupe_9" data-name="Groupe 9" transform="translate(5 6.25)">
    <path id="Shape-2" data-name="Shape" d="M10.89,1.757a6,6,0,1,1,8.482,8.482l-8.155,8.155a.923.923,0,0,1-1.3,0L1.757,10.239a6,6,0,0,1,8.482-8.482l.326.326Z" fill="#091625"/>
  </g>
</svg>
