<svg id="icon-guichet" xmlns="http://www.w3.org/2000/svg" width="30" height="30" viewBox="0 0 30 30">
  <rect id="Rectangle_131" data-name="Rectangle 131" width="30" height="30" fill="none"/>
  <g id="Groupe_86" data-name="Groupe 86" transform="translate(4.977 1.5)">
    <path id="Tracé_83" data-name="Tracé 83" d="M-12057-9563.273l-3.738-3.839,1.434-1.395,3.737,3.839Z" transform="translate(12066.09 9580.123)" fill="#091625"/>
    <path id="Tracé_84" data-name="Tracé 84" d="M-12057-9563.273l-3.738-3.839,1.434-1.395,3.737,3.839Z" transform="translate(12075.665 9571.31)" fill="#091625"/>
    <path id="Tracé_85" data-name="Tracé 85" d="M-12048.522-9577.8h0a1,1,0,0,1,.709.3l3.8,3.828a.976.976,0,0,1,.215.322.994.994,0,0,1-.245,1.119l-.1.1-.364.366-1.3,1.3-3.945,3.945-5.74,5.736a.986.986,0,0,1-.542.279l-4.509.752a.949.949,0,0,1-.165.014,1.006,1.006,0,0,1-.707-.291,1,1,0,0,1-.279-.872l.752-4.551a1,1,0,0,1,.276-.541l11.434-11.506A1,1,0,0,1-12048.522-9577.8Zm2.392,4.827-2.392-2.409-10.5,10.566-.473,2.857,2.815-.471C-12053.44-9565.665-12048.039-9571.062-12046.131-9572.973Z" transform="translate(12065.847 9577.8)" fill="#091625"/>
    <path id="Tracé_86" data-name="Tracé 86" d="M-12046.972-9555.747h-17.047a1,1,0,0,1-1-1v-17.359a1,1,0,0,1,1-1h12.809a1,1,0,0,1,1,1,1,1,0,0,1-1,1h-11.809v15.36h15.047v-12.4a1,1,0,0,1,1-1,1,1,0,0,1,1,1v13.4A1,1,0,0,1-12046.972-9555.747Z" transform="translate(12065.019 9578.473)" fill="#091625"/>
  </g>
</svg>
