<svg id="icon-map" xmlns="http://www.w3.org/2000/svg" xmlns:xlink="http://www.w3.org/1999/xlink" width="30" height="30" viewBox="0 0 30 30">
  <defs>
    <clipPath id="clip-path">
      <path id="Combined_Shape" data-name="Combined Shape" d="M.254,18.1A.822.822,0,0,1,0,17.5V4.168a.835.835,0,0,1,.42-.723L6.241.118A.828.828,0,0,1,6.611,0h.106l.021,0h0a.828.828,0,0,1,.3.084h0l.005,0,6.261,3.131L18.754.111A.826.826,0,0,1,19.166,0,.836.836,0,0,1,20,.835V14.168a.836.836,0,0,1-.42.723l-5.832,3.332h0l-.018.01-.009,0-.01,0a.821.821,0,0,1-.6.058l-.008,0-.008,0a.828.828,0,0,1-.148-.06L6.693,15.113,1.247,18.225a.829.829,0,0,1-.412.111A.849.849,0,0,1,.254,18.1ZM12.5,16.153V4.682l-5-2.5v11.47Zm1.667-.087,4.166-2.381V2.27L14.167,4.651ZM1.666,4.652V16.065l4.167-2.38V2.271Z" fill="#091625"/>
    </clipPath>
  </defs>
  <g id="Groupe_5" data-name="Groupe 5">
    <rect id="Rectangle_159" data-name="Rectangle 159" width="30" height="30" fill="none"/>
    <path id="Combined_Shape-2" data-name="Combined Shape" d="M.254,18.1A.822.822,0,0,1,0,17.5V4.168a.835.835,0,0,1,.42-.723L6.241.118A.828.828,0,0,1,6.611,0h.106l.021,0h0a.828.828,0,0,1,.3.084h0l.005,0,6.261,3.131L18.754.111A.826.826,0,0,1,19.166,0,.836.836,0,0,1,20,.835V14.168a.836.836,0,0,1-.42.723l-5.832,3.332h0l-.018.01-.009,0-.01,0a.821.821,0,0,1-.6.058l-.008,0-.008,0a.828.828,0,0,1-.148-.06L6.693,15.113,1.247,18.225a.829.829,0,0,1-.412.111A.849.849,0,0,1,.254,18.1ZM12.5,16.153V4.682l-5-2.5v11.47Zm1.667-.087,4.166-2.381V2.27L14.167,4.651ZM1.666,4.652V16.065l4.167-2.38V2.271Z" transform="translate(5 6.25)" fill="#091625"/>
  </g>
</svg>
