<svg id="icon-fullscreen" xmlns="http://www.w3.org/2000/svg" width="30" height="30" viewBox="0 0 30 30">
  <rect id="Rectangle_241" data-name="Rectangle 241" width="30" height="30" fill="none"/>
  <path id="Combined_Shape" data-name="Combined Shape" d="M17.063,17.5H11.375a.827.827,0,0,1-.875-.875v-.088a.931.931,0,0,1,.875-.788h3.15l-3.5-3.5a.846.846,0,0,1,0-1.225l.088-.088a.825.825,0,0,1,1.137.088l3.5,3.5v-3.15a.875.875,0,1,1,1.75,0V17.15l-.088.088c-.088.088-.088.175-.175.175l.088-.088-.088.088a.086.086,0,0,1-.088.088Zm-16.1,0H.35l-.088-.088c-.087-.088-.174-.088-.174-.175A.086.086,0,0,1,0,17.15V11.375A.827.827,0,0,1,.875,10.5a.827.827,0,0,1,.875.875v3.15l3.5-3.5a.818.818,0,0,1,1.137-.088l.088.088a.846.846,0,0,1,0,1.225l-3.5,3.5h3.15A.931.931,0,0,1,7,16.538v.088a.827.827,0,0,1-.875.875ZM.262,17.413ZM15.75,6.125V2.975l-3.5,3.5a.817.817,0,0,1-1.137.087l-.088-.087a.846.846,0,0,1,0-1.225l3.5-3.5h-3.15A.932.932,0,0,1,10.5.963V.875A.827.827,0,0,1,11.375,0H17.15l.088.088c.088.088.175.088.175.174A.086.086,0,0,1,17.5.35V6.125a.875.875,0,0,1-1.75,0ZM0,6.125V.35L.088.262C.176.176.176.088.262.088A.086.086,0,0,1,.35,0H6.125A.827.827,0,0,1,7,.875V.963a.932.932,0,0,1-.875.788H2.975l3.5,3.5a.846.846,0,0,1,0,1.225l-.088.087A.824.824,0,0,1,5.25,6.476l-3.5-3.5v3.15A.827.827,0,0,1,.875,7,.827.827,0,0,1,0,6.125Z" transform="translate(6.25 6.25)" fill="#091625"/>
</svg>
