<svg id="icon-layers" xmlns="http://www.w3.org/2000/svg" xmlns:xlink="http://www.w3.org/1999/xlink" width="30" height="30" viewBox="0 0 30 30">
  <defs>
    <clipPath id="clip-path">
      <path id="Combined_Shape" data-name="Combined Shape" d="M9.594,19.9.5,15.359a.909.909,0,1,1,.813-1.626L10,18.074l8.685-4.341a.909.909,0,1,1,.812,1.626L10.407,19.9a.915.915,0,0,1-.813,0Zm0-4.546L.5,10.813a.909.909,0,1,1,.813-1.627L10,13.529l8.685-4.343a.909.909,0,1,1,.812,1.627l-9.09,4.545a.908.908,0,0,1-.813,0Zm0-4.545L.5,6.267a.908.908,0,0,1,0-1.626L9.594.1a.913.913,0,0,1,.813,0L19.5,4.642a.908.908,0,0,1,0,1.626l-9.09,4.546a.913.913,0,0,1-.813,0ZM2.942,5.455,10,8.983l7.058-3.528L10,1.926Z" fill="#091625"/>
    </clipPath>
  </defs>
  <rect id="Rectangle_244" data-name="Rectangle 244" width="30" height="30" fill="none"/>
  <g id="Groupe_11" data-name="Groupe 11" transform="translate(5 5)">
    <path id="Combined_Shape-2" data-name="Combined Shape" d="M9.594,19.9.5,15.359a.909.909,0,1,1,.813-1.626L10,18.074l8.685-4.341a.909.909,0,1,1,.812,1.626L10.407,19.9a.915.915,0,0,1-.813,0Zm0-4.546L.5,10.813a.909.909,0,1,1,.813-1.627L10,13.529l8.685-4.343a.909.909,0,1,1,.812,1.627l-9.09,4.545a.908.908,0,0,1-.813,0Zm0-4.545L.5,6.267a.908.908,0,0,1,0-1.626L9.594.1a.913.913,0,0,1,.813,0L19.5,4.642a.908.908,0,0,1,0,1.626l-9.09,4.546a.913.913,0,0,1-.813,0ZM2.942,5.455,10,8.983l7.058-3.528L10,1.926Z" fill="#091625"/>
  </g>
</svg>
