<svg id="icon-cart" xmlns="http://www.w3.org/2000/svg" width="30" height="30" viewBox="0 0 30 30">
  <rect id="Rectangle_144" data-name="Rectangle 144" width="30" height="30" fill="none"/>
  <path id="Combined_Shape" data-name="Combined Shape" d="M14.94,19.429a3.125,3.125,0,1,1,3.125,3.125A3.128,3.128,0,0,1,14.94,19.429Zm2.083.007a1.039,1.039,0,0,0,1.041,1.035h.052a1.007,1.007,0,0,0,.709-.311,1.018,1.018,0,0,0,.282-.723,1.047,1.047,0,0,0-1.043-1.05A1.064,1.064,0,0,0,17.024,19.435ZM7.1,21.618a3.09,3.09,0,0,1-.9-2.217,3.134,3.134,0,0,1,3.126-3.1h.027a3.129,3.129,0,0,1,3.1,3.153A3.119,3.119,0,0,1,7.1,21.618Zm1.47-2.91a1.022,1.022,0,0,0-.291.743v.007a1.015,1.015,0,0,0,1.014,1.014h.05a1.042,1.042,0,1,0-.772-1.763Zm.226-2.59a3.571,3.571,0,0,1-3.458-2.847L3.259,2.8.845,2.347A1.2,1.2,0,0,1,.019.98,1.23,1.23,0,0,1,1.228,0a1.217,1.217,0,0,1,.22.019L4.5.6a1.292,1.292,0,0,1,.955.938l.62,3.177H22.7a1.23,1.23,0,0,1,.955.44l0,.008a1.238,1.238,0,0,1,.2,1.037l-2.151,7.385a3.543,3.543,0,0,1-3.381,2.531Zm-1.1-3.268a1.123,1.123,0,0,0,1.1.9h9.54a1.044,1.044,0,0,0,1.058-.8L21.1,7.119H6.552Z" transform="translate(2.5 3.75)" fill="#091625"/>
</svg>
