<svg id="icon-save" xmlns="http://www.w3.org/2000/svg" width="30" height="30" viewBox="0 0 30 30">
  <rect id="Rectangle_99" data-name="Rectangle 99" width="30" height="30" fill="none"/>
  <path id="Tracé_8" data-name="Tracé 8" d="M-12418.377-9933.4h14.521a1,1,0,0,1,.643.233l5.479,4.583a1,1,0,0,1,.357.767v15.416a1,1,0,0,1-1,1h-20a1,1,0,0,1-1-1v-20A1,1,0,0,1-12418.377-9933.4Zm14.16,2h-13.16v18h18v-13.949Z" transform="translate(12423.376 9937.399)" fill="#091625"/>
  <path id="Union_1" data-name="Union 1" d="M15473.076,10483.859H15461.2a1,1,0,0,1-1-1v-7.269a1,1,0,0,1,1-1h11.875a1,1,0,0,1,1,1v7.269A1,1,0,0,1,15473.076,10483.859Zm-10.877-2h9.877v-5.271h-9.877Zm7.164-11.448h-8.123a1,1,0,0,1-1-1v-6.212a1,1,0,0,1,1-1h8.123a1,1,0,0,1,1,1v6.212A1,1,0,0,1,15469.363,10470.412Zm-7.125-2h6.125v-4.213h-6.125Z" transform="translate(-15452.14 -10457.863)" fill="#091625"/>
</svg>
