<svg id="icon-filter" xmlns="http://www.w3.org/2000/svg" width="30" height="30" viewBox="0 0 30 30">
  <rect id="Rectangle_239" data-name="Rectangle 239" width="30" height="30" fill="none"/>
  <path id="Combined_Shape" data-name="Combined Shape" d="M7.137,16.359H.9a.891.891,0,0,1-.9-.9.871.871,0,0,1,.9-.9H7.11a2.827,2.827,0,0,1,5.358,0H19.88a.9.9,0,0,1,0,1.8H12.5A2.838,2.838,0,0,1,9.8,18.284,2.773,2.773,0,0,1,7.137,16.359Zm1.641-.893A1.025,1.025,0,1,0,9.8,14.433,1.052,1.052,0,0,0,8.778,15.465ZM12.552,9.74H.9a.89.89,0,0,1-.9-.9.871.871,0,0,1,.9-.9H12.555a2.827,2.827,0,0,1,5.358,0h1.968a.9.9,0,0,1,0,1.8H17.913a2.842,2.842,0,0,1-2.694,1.925A2.771,2.771,0,0,1,12.552,9.74Zm1.672-.9a1.025,1.025,0,1,0,1.026-1.026A1,1,0,0,0,14.223,8.84ZM3.527,3.725H.9a.89.89,0,0,1-.9-.9.865.865,0,0,1,.868-.9H3.5A2.86,2.86,0,0,1,6.164,0,2.917,2.917,0,0,1,8.886,1.925H19.881a.9.9,0,0,1,0,1.8H8.889A2.842,2.842,0,0,1,6.194,5.65,2.808,2.808,0,0,1,3.527,3.725Zm1.642-.9A1.025,1.025,0,1,0,6.194,1.8,1.026,1.026,0,0,0,5.169,2.825Z" transform="translate(5 6.25)" fill="#091625"/>
</svg>
