<svg id="icon-like" xmlns="http://www.w3.org/2000/svg" width="30" height="30" viewBox="0 0 30 30">
  <rect id="Rectangle_146" data-name="Rectangle 146" width="30" height="30" fill="none"/>
  <path id="Combined_Shape" data-name="Combined Shape" d="M17.721,22.518H3.07A3.074,3.074,0,0,1,0,19.447V12.282a3.074,3.074,0,0,1,3.07-3.07H5.476L9.3.608A1.024,1.024,0,0,1,10.235,0a4.1,4.1,0,0,1,4.094,4.094V7.165h4.794A3.069,3.069,0,0,1,22.158,10.7l-1.412,9.21a3.081,3.081,0,0,1-3.023,2.61ZM17.7,20.472h.011a1.018,1.018,0,0,0,1.013-.872l1.412-9.21a1.02,1.02,0,0,0-.24-.826,1.035,1.035,0,0,0-.783-.352H13.307a1.024,1.024,0,0,1-1.024-1.023v-4.1a2.039,2.039,0,0,0-1.425-1.951L7.165,10.452V20.472ZM2.048,12.282v7.165A1.024,1.024,0,0,0,3.07,20.471H5.118V11.259H3.07A1.024,1.024,0,0,0,2.048,12.282Z" transform="translate(3.75 2.5)" fill="#091625"/>
</svg>
