<svg id="icon-support" xmlns="http://www.w3.org/2000/svg" width="30" height="30" viewBox="0 0 30 30">
  <rect id="Rectangle_153" data-name="Rectangle 153" width="30" height="30" fill="none"/>
  <path id="Fill_1" data-name="Fill 1" d="M10.2,23.845c-.13,0-.235,0-.333-.01a2.473,2.473,0,0,1-1.911-3.877,2.506,2.506,0,0,1,2.05-1.068h1.315l.312,0,.313,0a2.516,2.516,0,0,1,2.1,1.16,2.045,2.045,0,0,1,.188.369l2.195,0h.187a9.54,9.54,0,0,0,.961-.034,4.289,4.289,0,0,0,.835-.229,4.068,4.068,0,0,0,.651-.357l.188-.139a3.9,3.9,0,0,0,.288-.263,3.6,3.6,0,0,0,.268-.291c.07-.091.108-.146.144-.2a4,4,0,0,0,.269-.469l-1.654,0h-.179a3.281,3.281,0,0,1-.787-.07,2.167,2.167,0,0,1-1.61-2.075c0-.085,0-.173,0-.259v-.065l0-4.856a2.5,2.5,0,0,1,.273-1.238A2.179,2.179,0,0,1,18.2,8.783h.7l.666,0,.668,0a10.307,10.307,0,0,0-.4-1.207,10.02,10.02,0,0,0-.745-1.4c-.141-.22-.281-.424-.43-.622l-.062-.08-.075-.093c-.09-.112-.166-.2-.24-.283A10.65,10.65,0,0,0,17.21,4.041c-.068-.055-.138-.113-.208-.168l-.258-.2c-.234-.164-.431-.294-.62-.409A9.815,9.815,0,0,0,14.84,2.6a10.11,10.11,0,0,0-2.348-.64,10.375,10.375,0,0,0-1.258-.076,10.569,10.569,0,0,0-1.266.076A10.246,10.246,0,0,0,7.6,2.612a10.206,10.206,0,0,0-1.4.743c-.2.126-.4.262-.622.43a.058.058,0,0,1-.011.01L5.5,3.843l-.1.082c-.094.074-.189.154-.282.239A10.619,10.619,0,0,0,4.063,5.235c-.09.107-.16.194-.22.272l-.169-.053.132.1L3.774,5.6c-.025.034-.05.068-.074.1-.148.208-.283.41-.414.619a10.415,10.415,0,0,0-.664,1.287,9.93,9.93,0,0,0-.395,1.178h.686l.705,0c.254,0,.485,0,.708,0A2.169,2.169,0,0,1,6.4,10.356a3.2,3.2,0,0,1,.075.837v4.745a4.606,4.606,0,0,1-.044.771,2.141,2.141,0,0,1-2.089,1.728l-1.762,0H2.4a3.283,3.283,0,0,1-.788-.07,2.137,2.137,0,0,1-1.593-1.9A.692.692,0,0,1,0,16.3l0-5.182c0-.115.007-.237.02-.375.024-.48.064-.9.12-1.281A11.184,11.184,0,0,1,6.175,1.192,11.5,11.5,0,0,1,13.421.2a11.214,11.214,0,0,1,8.036,6.369,11.624,11.624,0,0,1,.963,3.645c.018.185.027.373.036.556v.007c.007.117.009.239.009.386,0,.2,0,.4,0,.6V16.3a8.548,8.548,0,0,1-.133,1.827,5.373,5.373,0,0,1-5.289,4.186H14.23a2.438,2.438,0,0,1-.114.246,2.506,2.506,0,0,1-2.161,1.276l-.073,0H10.766c-.1,0-.194,0-.277,0H10.4Zm.111-3.06c-.153,0-.285.005-.4.016-.02,0-.092.022-.172.051-.02.011-.062.036-.1.061l-.109.108c-.03.054-.054.1-.08.16l0,.008c-.007.025-.018.062-.026.1s0,.107,0,.174c.006.024.023.086.047.154a1,1,0,0,0,.06.1l.111.111a1.375,1.375,0,0,0,.141.073l.011,0c.029.01.072.02.118.03.111.01.231.015.376.015.1,0,.2,0,.3,0s.2,0,.3,0h1.059l.034,0H12a1.282,1.282,0,0,0,.2-.054,1.115,1.115,0,0,0,.1-.059l.055-.054c.014-.012.038-.035.058-.056.029-.051.051-.1.074-.146a.979.979,0,0,0,.032-.124,1.507,1.507,0,0,0,0-.171c-.01-.036-.028-.1-.047-.156l-.015-.025c-.013-.021-.028-.047-.046-.072l-.025-.026-.025-.026-.06-.06c-.03-.017-.058-.031-.085-.045l-.037-.018-.038-.019-.124-.029c-.1-.009-.227-.013-.374-.013-.112,0-.227,0-.339,0s-.225,0-.355,0l-.3,0C10.54,20.787,10.427,20.785,10.315,20.785ZM4.5,16.474h0l.158.067-.129-.107.032-.056a.089.089,0,0,1,.005-.026c0-.01.006-.022.008-.033.006-.1,0-.222,0-.35V15.89l0-.219v-4.4c0-.12,0-.259,0-.393a.086.086,0,0,1-.011-.025l0-.012-.044-.073.068-.159-.1.131-.114-.046h-1.5l-.245,0c-.083,0-.157,0-.227,0-.1,0-.2,0-.284.011l-.016.006-.04.013a.445.445,0,0,1-.056.034l-.073.1c-.007.152-.011.326-.012.529l0,.178,0,4.62c0,.051,0,.108.008.178h0s0,0,.017.045a.213.213,0,0,1,.021.031l.021.033.1.061h0a.118.118,0,0,1,.033.007l.019.006H4.332a.713.713,0,0,0,.1-.022l.061-.04Zm13.56.052.015,0,.034.009h2.216a.713.713,0,0,0,.1-.022l.1-.1.022-.039a.085.085,0,0,1,.005-.029l.007-.028v-.446q0-.1,0-.2l0-4.458c0-.115-.006-.235-.01-.354l-.081-.115-.125-.054h-1.5l-.243,0c-.083,0-.158,0-.228,0-.1,0-.2,0-.285.011l-.018.006-.038.013-.026.017-.039.025-.062.1s0,.005-.014.058c0,.111,0,.241,0,.379v.053l0,.216v4.4c0,.127,0,.262.006.4h0s0,0,.017.041c.006.01.024.041.043.07l.1.062h0Z" transform="translate(3.75 2.5)" fill="#091625"/>
</svg>
