<svg id="icon-flag" xmlns="http://www.w3.org/2000/svg" xmlns:xlink="http://www.w3.org/1999/xlink" width="30" height="30" viewBox="0 0 30 30">
  <defs>
    <clipPath id="clip-path">
      <path id="Combined_Shape" data-name="Combined Shape" d="M0,18.958V1.806a.909.909,0,0,1,.264-.638A3.333,3.333,0,0,1,1.358.516,8.535,8.535,0,0,1,4.514,0,9.49,9.49,0,0,1,8.46.968a8.122,8.122,0,0,0,3.276.838,6.811,6.811,0,0,0,2.486-.387,1.923,1.923,0,0,0,.487-.251A.889.889,0,0,1,15.34.9a.9.9,0,0,1,.909.9V12.639a.905.905,0,0,1-.264.638,3.229,3.229,0,0,1-1.092.651,8.546,8.546,0,0,1-3.157.516,9.513,9.513,0,0,1-3.947-.967,8.093,8.093,0,0,0-3.276-.838,6.811,6.811,0,0,0-2.485.386c-.086.034-.16.067-.223.1v5.836a.9.9,0,0,1-1.806,0ZM8.46,11.8a8.1,8.1,0,0,0,3.276.839,6.832,6.832,0,0,0,2.486-.387q.128-.052.223-.1v-8.9a9.277,9.277,0,0,1-2.709.358A9.513,9.513,0,0,1,7.79,2.644a8.114,8.114,0,0,0-3.276-.838,6.8,6.8,0,0,0-2.485.387c-.082.033-.158.064-.223.1v8.9a9.258,9.258,0,0,1,2.708-.358A9.511,9.511,0,0,1,8.46,11.8Z" transform="translate(0 0)" fill="#091625"/>
    </clipPath>
  </defs>
  <rect id="Rectangle_240" data-name="Rectangle 240" width="30" height="30" fill="none"/>
  <g id="Groupe_3" data-name="Groupe 3" transform="translate(7.5 5)">
    <path id="Combined_Shape-2" data-name="Combined Shape" d="M0,18.958V1.806a.909.909,0,0,1,.264-.638A3.333,3.333,0,0,1,1.358.516,8.535,8.535,0,0,1,4.514,0,9.49,9.49,0,0,1,8.46.968a8.122,8.122,0,0,0,3.276.838,6.811,6.811,0,0,0,2.486-.387,1.923,1.923,0,0,0,.487-.251A.889.889,0,0,1,15.34.9a.9.9,0,0,1,.909.9V12.639a.905.905,0,0,1-.264.638,3.229,3.229,0,0,1-1.092.651,8.546,8.546,0,0,1-3.157.516,9.513,9.513,0,0,1-3.947-.967,8.093,8.093,0,0,0-3.276-.838,6.811,6.811,0,0,0-2.485.386c-.086.034-.16.067-.223.1v5.836a.9.9,0,0,1-1.806,0ZM8.46,11.8a8.1,8.1,0,0,0,3.276.839,6.832,6.832,0,0,0,2.486-.387q.128-.052.223-.1v-8.9a9.277,9.277,0,0,1-2.709.358A9.513,9.513,0,0,1,7.79,2.644a8.114,8.114,0,0,0-3.276-.838,6.8,6.8,0,0,0-2.485.387c-.082.033-.158.064-.223.1v8.9a9.258,9.258,0,0,1,2.708-.358A9.511,9.511,0,0,1,8.46,11.8Z" transform="translate(0 0)" fill="#091625"/>
  </g>
</svg>
