<svg width="24" height="24" viewBox="0 0 24 24" fill="none" xmlns="http://www.w3.org/2000/svg">
<path fill-rule="evenodd" clip-rule="evenodd" d="M12 13C8.685 13 6 10.315 6 7C6 3.685 8.685 1 12 1C15.315 1 18 3.685 18 7C18 10.315 15.315 13 12 13ZM16 7C16 9.21 14.21 11 12 11C9.79 11 8 9.21 8 7C8 4.79 9.79 3 12 3C14.21 3 16 4.79 16 7Z" fill="#363331"/>
<path d="M4 22C4 17.5817 7.58172 14 12 14C16.4183 14 20 17.5817 20 22H18C18 18.6863 15.3137 16 12 16C8.68629 16 6 18.6863 6 22H4Z" fill="#363331"/>
</svg>
