<svg id="icon-configuration" xmlns="http://www.w3.org/2000/svg" xmlns:xlink="http://www.w3.org/1999/xlink" width="30" height="30" viewBox="0 0 30 30">
  <defs>
    <clipPath id="clip-path">
      <path id="Combined_Shape" data-name="Combined Shape" d="M10.066,20a2.5,2.5,0,0,1-2.5-2.5.581.581,0,0,0-.4-.571.549.549,0,0,0-.221-.046.534.534,0,0,0-.371.149l-.049.049a2.5,2.5,0,0,1-3.537,0,2.514,2.514,0,0,1-.732-1.769,2.485,2.485,0,0,1,.732-1.769L3.03,13.5a.55.55,0,0,0,.1-.606.541.541,0,0,0-.493-.328H2.5a2.5,2.5,0,0,1,0-5,.581.581,0,0,0,.571-.4.542.542,0,0,0-.1-.592l-.049-.049A2.5,2.5,0,0,1,4.688,2.253a2.518,2.518,0,0,1,1.768.732L6.5,3.03a.542.542,0,0,0,.6.108.8.8,0,0,1,.166-.053A.541.541,0,0,0,7.5,2.641V2.5a2.5,2.5,0,0,1,5,0v.072a.559.559,0,0,0,.557.546.529.529,0,0,0,.37-.148l.051-.049a2.5,2.5,0,0,1,3.536,0,2.483,2.483,0,0,1,.733,1.77,2.518,2.518,0,0,1-.732,1.768l-.044.043a.539.539,0,0,0-.108.6.811.811,0,0,1,.053.166.541.541,0,0,0,.443.237H17.5a2.5,2.5,0,0,1,0,5h-.072a.552.552,0,0,0-.4.927l.049.051a2.514,2.514,0,0,1,.732,1.768,2.479,2.479,0,0,1-.732,1.767,2.511,2.511,0,0,1-1.769.733,2.485,2.485,0,0,1-1.769-.732l-.043-.044a.536.536,0,0,0-.377-.154.568.568,0,0,0-.23.049.541.541,0,0,0-.328.493V17.5A2.5,2.5,0,0,1,10.066,20ZM6.954,15.211a2.05,2.05,0,0,1,.834.173,2.21,2.21,0,0,1,1.446,2.041V17.5a.834.834,0,0,0,1.667,0v-.145a2.217,2.217,0,0,1,3.772-1.569l.051.051a.839.839,0,0,0,.589.244.83.83,0,0,0,.591-.245.839.839,0,0,0,.244-.589.83.83,0,0,0-.245-.591l-.056-.056a2.219,2.219,0,0,1,1.58-3.765H17.5a.834.834,0,0,0,0-1.667h-.145a2.206,2.206,0,0,1-2.022-1.339.782.782,0,0,1-.06-.219,2.2,2.2,0,0,1,.512-2.281l.051-.05a.839.839,0,0,0,.244-.589.83.83,0,0,0-.245-.591.835.835,0,0,0-1.18,0l-.056.056a2.195,2.195,0,0,1-1.546.631,2.161,2.161,0,0,1-.882-.186,2.208,2.208,0,0,1-1.338-2.024V2.5a.834.834,0,1,0-1.667,0v.145A2.209,2.209,0,0,1,7.828,4.667a.865.865,0,0,1-.219.06,2.212,2.212,0,0,1-2.281-.512l-.05-.051a.839.839,0,0,0-.589-.244A.834.834,0,0,0,4.1,5.344l.056.057a2.18,2.18,0,0,1,.462,2.386A2.212,2.212,0,0,1,2.575,9.233H2.5a.834.834,0,0,0,0,1.667h.145a2.219,2.219,0,0,1,1.569,3.772l-.051.051a.839.839,0,0,0-.244.589.834.834,0,0,0,1.424.59l.057-.056A2.235,2.235,0,0,1,6.954,15.211ZM10,13.334A3.333,3.333,0,1,1,13.334,10,3.337,3.337,0,0,1,10,13.334Zm0-5A1.667,1.667,0,1,0,11.666,10,1.669,1.669,0,0,0,10,8.333Z" transform="translate(0 0)" fill="#091625"/>
    </clipPath>
  </defs>
  <rect id="Rectangle_236" data-name="Rectangle 236" width="30" height="30" fill="none"/>
  <g id="Groupe_2" data-name="Groupe 2" transform="translate(5 5)">
    <path id="Combined_Shape-2" data-name="Combined Shape" d="M10.066,20a2.5,2.5,0,0,1-2.5-2.5.581.581,0,0,0-.4-.571.549.549,0,0,0-.221-.046.534.534,0,0,0-.371.149l-.049.049a2.5,2.5,0,0,1-3.537,0,2.514,2.514,0,0,1-.732-1.769,2.485,2.485,0,0,1,.732-1.769L3.03,13.5a.55.55,0,0,0,.1-.606.541.541,0,0,0-.493-.328H2.5a2.5,2.5,0,0,1,0-5,.581.581,0,0,0,.571-.4.542.542,0,0,0-.1-.592l-.049-.049A2.5,2.5,0,0,1,4.688,2.253a2.518,2.518,0,0,1,1.768.732L6.5,3.03a.542.542,0,0,0,.6.108.8.8,0,0,1,.166-.053A.541.541,0,0,0,7.5,2.641V2.5a2.5,2.5,0,0,1,5,0v.072a.559.559,0,0,0,.557.546.529.529,0,0,0,.37-.148l.051-.049a2.5,2.5,0,0,1,3.536,0,2.483,2.483,0,0,1,.733,1.77,2.518,2.518,0,0,1-.732,1.768l-.044.043a.539.539,0,0,0-.108.6.811.811,0,0,1,.053.166.541.541,0,0,0,.443.237H17.5a2.5,2.5,0,0,1,0,5h-.072a.552.552,0,0,0-.4.927l.049.051a2.514,2.514,0,0,1,.732,1.768,2.479,2.479,0,0,1-.732,1.767,2.511,2.511,0,0,1-1.769.733,2.485,2.485,0,0,1-1.769-.732l-.043-.044a.536.536,0,0,0-.377-.154.568.568,0,0,0-.23.049.541.541,0,0,0-.328.493V17.5A2.5,2.5,0,0,1,10.066,20ZM6.954,15.211a2.05,2.05,0,0,1,.834.173,2.21,2.21,0,0,1,1.446,2.041V17.5a.834.834,0,0,0,1.667,0v-.145a2.217,2.217,0,0,1,3.772-1.569l.051.051a.839.839,0,0,0,.589.244.83.83,0,0,0,.591-.245.839.839,0,0,0,.244-.589.83.83,0,0,0-.245-.591l-.056-.056a2.219,2.219,0,0,1,1.58-3.765H17.5a.834.834,0,0,0,0-1.667h-.145a2.206,2.206,0,0,1-2.022-1.339.782.782,0,0,1-.06-.219,2.2,2.2,0,0,1,.512-2.281l.051-.05a.839.839,0,0,0,.244-.589.83.83,0,0,0-.245-.591.835.835,0,0,0-1.18,0l-.056.056a2.195,2.195,0,0,1-1.546.631,2.161,2.161,0,0,1-.882-.186,2.208,2.208,0,0,1-1.338-2.024V2.5a.834.834,0,1,0-1.667,0v.145A2.209,2.209,0,0,1,7.828,4.667a.865.865,0,0,1-.219.06,2.212,2.212,0,0,1-2.281-.512l-.05-.051a.839.839,0,0,0-.589-.244A.834.834,0,0,0,4.1,5.344l.056.057a2.18,2.18,0,0,1,.462,2.386A2.212,2.212,0,0,1,2.575,9.233H2.5a.834.834,0,0,0,0,1.667h.145a2.219,2.219,0,0,1,1.569,3.772l-.051.051a.839.839,0,0,0-.244.589.834.834,0,0,0,1.424.59l.057-.056A2.235,2.235,0,0,1,6.954,15.211ZM10,13.334A3.333,3.333,0,1,1,13.334,10,3.337,3.337,0,0,1,10,13.334Zm0-5A1.667,1.667,0,1,0,11.666,10,1.669,1.669,0,0,0,10,8.333Z" transform="translate(0 0)" fill="#091625"/>
  </g>
</svg>
